<svg width="17" height="17" viewBox="0 0 17 17" fill="none" xmlns="http://www.w3.org/2000/svg">
<path d="M5.0856 6.66892L7.19143 7.79783C7.59377 8.01405 8.04331 8.12746 8.50006 8.12796M5.0856 6.66892L2.07489 5.05629C2.33172 4.63452 2.6966 4.28825 3.13177 4.05483L7.19064 1.87933C7.59332 1.66341 8.04314 1.55042 8.50006 1.55042C8.95697 1.55042 9.4068 1.66341 9.80948 1.87933L11.9121 3.00588M5.0856 6.66892L11.8116 3.06367L11.9129 3.00825M8.50006 8.12796C8.95701 8.12783 9.40684 8.0147 9.80948 7.79863L14.9252 5.05629M8.50006 8.12796V15.4501C8.95701 15.45 9.40684 15.3368 9.80948 15.1208L13.8684 12.9453C14.3101 12.7084 14.6792 12.3562 14.9366 11.9261C15.194 11.496 15.3298 11.0042 15.3298 10.503V6.49713C15.3298 5.98857 15.1898 5.4906 14.9252 5.05629M2.07489 5.05471C1.81072 5.48887 1.67104 5.98733 1.67114 6.49554V10.5022C1.671 11.0033 1.80676 11.4951 2.06397 11.9251C2.32118 12.3552 2.69021 12.7075 3.13177 12.9445L7.19064 15.12C7.59314 15.3366 8.04297 15.4503 8.50006 15.4509M14.9252 5.05629C14.6684 4.63452 14.3035 4.28825 13.8684 4.05483L11.9129 3.00667" stroke="#2C3941" stroke-width="1.5" stroke-linejoin="round"/>
</svg>
