<svg width="32" height="32" viewBox="0 0 32 32" fill="none" xmlns="http://www.w3.org/2000/svg">
<path d="M2 4H4.33333L5.33333 8M5.33333 8L8.66667 21.3333H26L29.3333 8H5.33333Z" stroke="#2C3941" stroke-width="2" stroke-linecap="round" stroke-linejoin="round"/>
<path d="M8.66675 28C9.77132 28 10.6667 27.1046 10.6667 26C10.6667 24.8954 9.77132 24 8.66675 24C7.56218 24 6.66675 24.8954 6.66675 26C6.66675 27.1046 7.56218 28 8.66675 28Z" stroke="#2C3941" stroke-width="2" stroke-linecap="round" stroke-linejoin="round"/>
<path d="M26 28C27.1046 28 28 27.1046 28 26C28 24.8954 27.1046 24 26 24C24.8954 24 24 24.8954 24 26C24 27.1046 24.8954 28 26 28Z" stroke="#2C3941" stroke-width="2" stroke-linecap="round" stroke-linejoin="round"/>
</svg>
