<svg width="11" height="9" viewBox="0 0 11 9" fill="none" xmlns="http://www.w3.org/2000/svg">
<path d="M3.95898 6.67508L1.74639 4.4625C1.63638 4.35624 1.48903 4.29744 1.33608 4.29877C1.18313 4.3001 1.03682 4.36145 0.928667 4.4696C0.820512 4.57776 0.759164 4.72406 0.757835 4.87701C0.756505 5.02996 0.815302 5.17731 0.921561 5.28733L3.54656 7.91233C3.65595 8.02169 3.8043 8.08312 3.95898 8.08312C4.11366 8.08312 4.262 8.02169 4.37139 7.91233L10.7881 1.49566C10.8943 1.38564 10.9531 1.23829 10.9518 1.08534C10.9505 0.932397 10.8891 0.786089 10.781 0.677935C10.6728 0.56978 10.5265 0.508431 10.3735 0.507102C10.2206 0.505773 10.0732 0.56457 9.96323 0.670829L3.95898 6.67508Z" fill="white"/>
</svg>
