<svg width="36" height="36" viewBox="0 0 36 36" fill="none" xmlns="http://www.w3.org/2000/svg">
<path d="M12 14.25C11.5027 14.25 11.0258 14.4475 10.6742 14.7992C10.3225 15.1508 10.125 15.6277 10.125 16.125C10.125 16.6223 10.3225 17.0992 10.6742 17.4508C11.0258 17.8025 11.5027 18 12 18C12.4973 18 12.9742 17.8025 13.3258 17.4508C13.6775 17.0992 13.875 16.6223 13.875 16.125C13.875 15.6277 13.6775 15.1508 13.3258 14.7992C12.9742 14.4475 12.4973 14.25 12 14.25ZM18 14.25C17.5027 14.25 17.0258 14.4475 16.6742 14.7992C16.3225 15.1508 16.125 15.6277 16.125 16.125C16.125 16.6223 16.3225 17.0992 16.6742 17.4508C17.0258 17.8025 17.5027 18 18 18C18.4973 18 18.9742 17.8025 19.3258 17.4508C19.6775 17.0992 19.875 16.6223 19.875 16.125C19.875 15.6277 19.6775 15.1508 19.3258 14.7992C18.9742 14.4475 18.4973 14.25 18 14.25ZM22.125 16.125C22.125 15.6277 22.3225 15.1508 22.6742 14.7992C23.0258 14.4475 23.5027 14.25 24 14.25C24.4973 14.25 24.9742 14.4475 25.3258 14.7992C25.6775 15.1508 25.875 15.6277 25.875 16.125C25.875 16.6223 25.6775 17.0992 25.3258 17.4508C24.9742 17.8025 24.4973 18 24 18C23.5027 18 23.0258 17.8025 22.6742 17.4508C22.3225 17.0992 22.125 16.6223 22.125 16.125Z" fill="#2C3941"/>
<path fill-rule="evenodd" clip-rule="evenodd" d="M24.15 6.88955C20.1091 6.54506 16.0471 6.525 12.003 6.82955L11.7135 6.85205C9.85411 6.99238 8.11637 7.82996 6.84828 9.19707C5.5802 10.5642 4.87539 12.3599 4.875 14.2246V27.0001C4.87517 27.1945 4.92576 27.3857 5.02182 27.5548C5.11789 27.7239 5.25615 27.8652 5.42312 27.9649C5.59009 28.0646 5.78006 28.1194 5.97449 28.1238C6.16893 28.1282 6.36118 28.0821 6.5325 27.9901L12.3975 24.8386C12.6709 24.6916 12.9766 24.6148 13.287 24.6151H26.751C28.449 24.6151 29.904 23.4001 30.2085 21.7306C30.8265 18.3451 30.8745 14.8801 30.3525 11.4781L30.1995 10.4746C30.0635 9.588 29.6334 8.77291 28.9783 8.16026C28.3232 7.54762 27.4812 7.17298 26.5875 7.09655L24.15 6.88955ZM12.174 9.07355C16.0982 8.77697 20.0399 8.79603 23.961 9.13055L26.397 9.33905C27.201 9.40805 27.855 10.0186 27.9765 10.8166L28.131 11.8186C28.6132 14.9736 28.5676 18.1869 27.996 21.3271C27.9438 21.6186 27.7906 21.8825 27.5631 22.0723C27.3357 22.2622 27.0487 22.3658 26.7525 22.3651H13.287C12.6053 22.3652 11.9343 22.5342 11.334 22.8571L7.125 25.1191V14.2246C7.12508 12.9273 7.61519 11.678 8.49719 10.7267C9.37918 9.77548 10.588 9.19251 11.8815 9.09455L12.174 9.07355Z" fill="#2C3941"/>
</svg>
