<svg width="16" height="12" viewBox="0 0 16 12" fill="none" xmlns="http://www.w3.org/2000/svg">
<path d="M11.5 3.59812V3.25C11.5 1.6825 9.13562 0.5 6 0.5C2.86438 0.5 0.5 1.6825 0.5 3.25V5.75C0.5 7.05562 2.14062 8.09313 4.5 8.40375V8.75C4.5 10.3175 6.86438 11.5 10 11.5C13.1356 11.5 15.5 10.3175 15.5 8.75V6.25C15.5 4.95625 13.9113 3.9175 11.5 3.59812ZM14.5 6.25C14.5 7.07625 12.5756 8 10 8C9.76688 8 9.53562 7.99188 9.3075 7.97688C10.6556 7.48563 11.5 6.6875 11.5 5.75V4.60875C13.3669 4.88687 14.5 5.64188 14.5 6.25ZM4.5 7.39062V5.90375C4.99737 5.96851 5.49844 6.00066 6 6C6.50156 6.00066 7.00263 5.96851 7.5 5.90375V7.39062C7.00338 7.46399 6.50201 7.50055 6 7.5C5.49799 7.50055 4.99662 7.46399 4.5 7.39062ZM10.5 4.87063V5.75C10.5 6.27437 9.72437 6.8375 8.5 7.17937V5.71875C9.30688 5.52313 9.99 5.23187 10.5 4.87063ZM6 1.5C8.57562 1.5 10.5 2.42375 10.5 3.25C10.5 4.07625 8.57562 5 6 5C3.42438 5 1.5 4.07625 1.5 3.25C1.5 2.42375 3.42438 1.5 6 1.5ZM1.5 5.75V4.87063C2.01 5.23187 2.69313 5.52313 3.5 5.71875V7.17937C2.27562 6.8375 1.5 6.27437 1.5 5.75ZM5.5 8.75V8.48938C5.66437 8.49563 5.83063 8.5 6 8.5C6.2425 8.5 6.47937 8.49187 6.71187 8.47812C6.97016 8.57058 7.23326 8.64903 7.5 8.71313V10.1794C6.27563 9.8375 5.5 9.27437 5.5 8.75ZM8.5 10.3906V8.9C8.9972 8.96683 9.49833 9.00024 10 9C10.5016 9.00066 11.0026 8.96851 11.5 8.90375V10.3906C10.5053 10.5364 9.49469 10.5364 8.5 10.3906ZM12.5 10.1794V8.71875C13.3069 8.52312 13.99 8.23187 14.5 7.87062V8.75C14.5 9.27437 13.7244 9.8375 12.5 10.1794Z" fill="#2C3941"/>
</svg>
