<svg width="18" height="12" viewBox="0 0 18 12" fill="none" xmlns="http://www.w3.org/2000/svg">
<path d="M0.396208 1.21576C0.649976 0.962069 0.994114 0.819552 1.35294 0.819552C1.71177 0.819552 2.05591 0.962069 2.30968 1.21576L9.00817 7.91425L15.7067 1.21576C15.9619 0.969258 16.3037 0.832861 16.6585 0.835944C17.0133 0.839027 17.3527 0.981345 17.6036 1.23224C17.8545 1.48314 17.9969 1.82255 17.9999 2.17737C18.003 2.53218 17.8666 2.87401 17.6201 3.12923L9.9649 10.7845C9.71113 11.0381 9.367 11.1807 9.00817 11.1807C8.64934 11.1807 8.3052 11.0381 8.05144 10.7845L0.396208 3.12923C0.142516 2.87546 0 2.53132 0 2.17249C0 1.81367 0.142516 1.46953 0.396208 1.21576Z" fill="#73787B"/>
</svg>
