<svg width="15" height="14" viewBox="0 0 15 14" fill="none" xmlns="http://www.w3.org/2000/svg">
<path d="M7 1.5H2.33333C1.97971 1.5 1.64057 1.64048 1.39052 1.89052C1.14048 2.14057 1 2.47971 1 2.83333V12.1667C1 12.5203 1.14048 12.8594 1.39052 13.1095C1.64057 13.3595 1.97971 13.5 2.33333 13.5H11.6667C12.0203 13.5 12.3594 13.3595 12.6095 13.1095C12.8595 12.8594 13 12.5203 13 12.1667V7.5" stroke="#06468A" stroke-linecap="round" stroke-linejoin="round"/>
<path d="M11.2494 1.25003C11.5146 0.984812 11.8743 0.835815 12.2494 0.835815C12.6245 0.835815 12.9842 0.984812 13.2494 1.25003C13.5146 1.51525 13.6636 1.87496 13.6636 2.25003C13.6636 2.6251 13.5146 2.98481 13.2494 3.25003L7.24075 9.25936C7.08244 9.41753 6.88688 9.5333 6.67208 9.59603L4.75674 10.156C4.69938 10.1728 4.63857 10.1738 4.58068 10.1589C4.5228 10.1441 4.46996 10.114 4.42771 10.0717C4.38546 10.0295 4.35534 9.97664 4.34051 9.91876C4.32568 9.86087 4.32668 9.80006 4.34341 9.7427L4.90341 7.82736C4.96643 7.61273 5.08243 7.4174 5.24075 7.25936L11.2494 1.25003Z" stroke="#06468A" stroke-linecap="round" stroke-linejoin="round"/>
</svg>
