<svg width="20" height="20" viewBox="0 0 20 20" fill="none" xmlns="http://www.w3.org/2000/svg">
<path d="M9.99809 -0.000976562C15.5221 -0.000976562 20.0001 4.47702 20.0001 10.001C20.0001 15.524 15.5221 20.002 9.99809 20.002C4.47409 20.002 -0.00390625 15.524 -0.00390625 10.001C-0.00390625 4.47702 4.47409 -0.000976562 9.99809 -0.000976562ZM9.99809 1.49902C8.8739 1.48683 7.75846 1.69772 6.71631 2.1195C5.67417 2.54127 4.72602 3.16554 3.92675 3.95619C3.12749 4.74684 2.49296 5.68816 2.05992 6.72566C1.62687 7.76317 1.40389 8.87627 1.40389 10.0005C1.40389 11.1248 1.62687 12.2379 2.05992 13.2754C2.49296 14.3129 3.12749 15.2542 3.92675 16.0449C4.72602 16.8355 5.67417 17.4598 6.71631 17.8816C7.75846 18.3033 8.8739 18.5142 9.99809 18.502C12.2301 18.4678 14.3591 17.5571 15.9254 15.9666C17.4918 14.376 18.3697 12.2333 18.3697 10.001C18.3697 7.76874 17.4918 5.626 15.9254 4.03548C14.3591 2.44496 12.2301 1.53426 9.99809 1.50002V1.49902ZM6.46009 12.784C6.88084 13.32 7.41805 13.7533 8.03102 14.0509C8.644 14.3486 9.31667 14.5028 9.99809 14.502C10.6787 14.5028 11.3505 14.3489 11.9629 14.052C12.5753 13.755 13.1122 13.3228 13.5331 12.788C13.6564 12.6319 13.8367 12.5312 14.0343 12.5081C14.2318 12.4849 14.4305 12.5412 14.5866 12.6645C14.7427 12.7878 14.8434 12.9681 14.8665 13.1657C14.8897 13.3633 14.8334 13.5619 14.7101 13.718C14.1488 14.4306 13.4331 15.0064 12.6168 15.4021C11.8006 15.7977 10.9052 16.0029 9.99809 16.002C9.08985 16.0028 8.19332 15.797 7.37631 15.4003C6.55929 15.0035 5.84317 14.4262 5.28209 13.712C5.16429 13.5554 5.11249 13.3588 5.13777 13.1645C5.16306 12.9701 5.26342 12.7934 5.41739 12.6721C5.57135 12.5508 5.76668 12.4946 5.96156 12.5155C6.15644 12.5364 6.33538 12.6328 6.46009 12.784ZM6.99809 6.75002C7.16515 6.7453 7.33147 6.77412 7.4872 6.83479C7.64292 6.89545 7.7849 6.98673 7.90474 7.10323C8.02458 7.21972 8.11984 7.35907 8.18488 7.51302C8.24993 7.66697 8.28345 7.8324 8.28345 7.99952C8.28345 8.16665 8.24993 8.33208 8.18488 8.48603C8.11984 8.63998 8.02458 8.77932 7.90474 8.89582C7.7849 9.01231 7.64292 9.10359 7.4872 9.16426C7.33147 9.22493 7.16515 9.25375 6.99809 9.24902C6.67282 9.23982 6.36397 9.10414 6.13715 8.87082C5.91034 8.6375 5.78345 8.32492 5.78345 7.99952C5.78345 7.67413 5.91034 7.36155 6.13715 7.12823C6.36397 6.89491 6.67282 6.75923 6.99809 6.75002ZM12.9981 6.75002C13.1652 6.7453 13.3315 6.77412 13.4872 6.83479C13.6429 6.89545 13.7849 6.98673 13.9047 7.10323C14.0246 7.21972 14.1198 7.35907 14.1849 7.51302C14.2499 7.66697 14.2834 7.8324 14.2834 7.99952C14.2834 8.16665 14.2499 8.33208 14.1849 8.48603C14.1198 8.63998 14.0246 8.77932 13.9047 8.89582C13.7849 9.01231 13.6429 9.10359 13.4872 9.16426C13.3315 9.22493 13.1652 9.25375 12.9981 9.24902C12.6728 9.23982 12.364 9.10414 12.1372 8.87082C11.9103 8.6375 11.7834 8.32492 11.7834 7.99952C11.7834 7.67413 11.9103 7.36155 12.1372 7.12823C12.364 6.89491 12.6728 6.75923 12.9981 6.75002Z" fill="#2C3941"/>
</svg>
