<svg width="24" height="25" viewBox="0 0 24 25" fill="none" xmlns="http://www.w3.org/2000/svg">
<path d="M7.10016 0.833252H16.9002C20.6335 0.833252 23.6668 3.86659 23.6668 7.59992V17.3999C23.6668 19.1946 22.9539 20.9157 21.6849 22.1847C20.4159 23.4537 18.6948 24.1666 16.9002 24.1666H7.10016C3.36683 24.1666 0.333496 21.1333 0.333496 17.3999V7.59992C0.333496 5.80529 1.04641 4.08416 2.31541 2.81516C3.5844 1.54617 5.30553 0.833252 7.10016 0.833252ZM6.86683 3.16659C5.75292 3.16659 4.68463 3.60908 3.89698 4.39674C3.10933 5.18439 2.66683 6.25268 2.66683 7.36658V17.6333C2.66683 19.9549 4.54516 21.8333 6.86683 21.8333H17.1335C18.2474 21.8333 19.3157 21.3908 20.1033 20.6031C20.891 19.8154 21.3335 18.7472 21.3335 17.6333V7.36658C21.3335 5.04492 19.4552 3.16659 17.1335 3.16659H6.86683ZM18.1252 4.91658C18.5119 4.91658 18.8829 5.07023 19.1564 5.34372C19.4299 5.61721 19.5835 5.98814 19.5835 6.37492C19.5835 6.76169 19.4299 7.13263 19.1564 7.40612C18.8829 7.67961 18.5119 7.83325 18.1252 7.83325C17.7384 7.83325 17.3675 7.67961 17.094 7.40612C16.8205 7.13263 16.6668 6.76169 16.6668 6.37492C16.6668 5.98814 16.8205 5.61721 17.094 5.34372C17.3675 5.07023 17.7384 4.91658 18.1252 4.91658ZM12.0002 6.66658C13.5473 6.66658 15.031 7.28117 16.125 8.37513C17.2189 9.46909 17.8335 10.9528 17.8335 12.4999C17.8335 14.047 17.2189 15.5307 16.125 16.6247C15.031 17.7187 13.5473 18.3333 12.0002 18.3333C10.4531 18.3333 8.96934 17.7187 7.87537 16.6247C6.78141 15.5307 6.16683 14.047 6.16683 12.4999C6.16683 10.9528 6.78141 9.46909 7.87537 8.37513C8.96934 7.28117 10.4531 6.66658 12.0002 6.66658ZM12.0002 8.99992C11.0719 8.99992 10.1817 9.36867 9.52529 10.025C8.86891 10.6814 8.50016 11.5717 8.50016 12.4999C8.50016 13.4282 8.86891 14.3184 9.52529 14.9748C10.1817 15.6312 11.0719 15.9999 12.0002 15.9999C12.9284 15.9999 13.8187 15.6312 14.475 14.9748C15.1314 14.3184 15.5002 13.4282 15.5002 12.4999C15.5002 11.5717 15.1314 10.6814 14.475 10.025C13.8187 9.36867 12.9284 8.99992 12.0002 8.99992Z" fill="white"/>
</svg>
