<svg width="13" height="13" viewBox="0 0 13 13" fill="none" xmlns="http://www.w3.org/2000/svg">
<path d="M6.5 0C10.0899 0 13 2.91005 13 6.5C13 10.0899 10.0899 13 6.5 13C2.91005 13 0 10.0899 0 6.5C0 2.91005 2.91005 0 6.5 0ZM6.5 1.3C5.12087 1.3 3.79823 1.84786 2.82304 2.82304C1.84786 3.79823 1.3 5.12087 1.3 6.5C1.3 7.87913 1.84786 9.20177 2.82304 10.177C3.79823 11.1521 5.12087 11.7 6.5 11.7C7.87913 11.7 9.20177 11.1521 10.177 10.177C11.1521 9.20177 11.7 7.87913 11.7 6.5C11.7 5.12087 11.1521 3.79823 10.177 2.82304C9.20177 1.84786 7.87913 1.3 6.5 1.3ZM6.5 2.6C6.65921 2.60002 6.81287 2.65847 6.93184 2.76426C7.05081 2.87006 7.12682 3.01584 7.14545 3.17395L7.15 3.25V6.2309L8.90955 7.99045C9.02613 8.10742 9.09381 8.26438 9.09885 8.42945C9.10389 8.59452 9.04591 8.75531 8.93669 8.87918C8.82747 9.00305 8.67519 9.0807 8.51079 9.09636C8.34639 9.11202 8.18219 9.06452 8.05155 8.9635L7.99045 8.90955L6.04045 6.95955C5.93943 6.85844 5.87455 6.72685 5.85585 6.58515L5.85 6.5V3.25C5.85 3.07761 5.91848 2.91228 6.04038 2.79038C6.16228 2.66848 6.32761 2.6 6.5 2.6Z" fill="#2C3941"/>
</svg>
