<svg width="12" height="14" viewBox="0 0 12 14" fill="none" xmlns="http://www.w3.org/2000/svg">
<path d="M5.67184 1.26104C4.50186 1.26104 3.37979 1.72581 2.55249 2.55312C1.72518 3.38042 1.26041 4.50249 1.26041 5.67247C1.26041 7.47612 2.38343 9.21611 3.61612 10.5641C4.24641 11.2508 4.93414 11.8825 5.67184 12.4522C5.78192 12.3678 5.91111 12.2648 6.05942 12.1434C6.65169 11.6571 7.20911 11.1298 7.72757 10.5654C8.96025 9.21611 10.0833 7.47675 10.0833 5.67247C10.0833 4.50249 9.6185 3.38042 8.7912 2.55312C7.96389 1.72581 6.84183 1.26104 5.67184 1.26104ZM5.67184 14L5.31452 13.7542L5.31263 13.753L5.30885 13.7498L5.29624 13.741L5.24898 13.7076L5.07882 13.5834C4.21661 12.9354 3.41563 12.2098 2.68593 11.4155C1.39779 10.0051 0 7.9639 0 5.67184C2.24153e-08 4.16758 0.597567 2.72492 1.66124 1.66124C2.72492 0.597568 4.16758 0 5.67184 0C7.17611 0 8.61876 0.597568 9.68244 1.66124C10.7461 2.72492 11.3437 4.16758 11.3437 5.67184C11.3437 7.9639 9.94589 10.0058 8.65775 11.4143C7.92825 12.2085 7.12748 12.9342 6.2655 13.5822C6.19369 13.6358 6.12121 13.6885 6.04808 13.7404L6.03484 13.7492L6.03106 13.7523L6.0298 13.753L5.67184 14ZM5.67184 4.41206C5.33756 4.41206 5.01697 4.54486 4.7806 4.78123C4.54423 5.0176 4.41143 5.33819 4.41143 5.67247C4.41143 6.00675 4.54423 6.32734 4.7806 6.56372C5.01697 6.80009 5.33756 6.93288 5.67184 6.93288C6.00612 6.93288 6.32671 6.80009 6.56309 6.56372C6.79946 6.32734 6.93225 6.00675 6.93225 5.67247C6.93225 5.33819 6.79946 5.0176 6.56309 4.78123C6.32671 4.54486 6.00612 4.41206 5.67184 4.41206ZM3.15102 5.67247C3.15102 5.00391 3.41661 4.36273 3.88935 3.88998C4.3621 3.41724 5.00328 3.15165 5.67184 3.15165C6.34041 3.15165 6.98159 3.41724 7.45433 3.88998C7.92708 4.36273 8.19266 5.00391 8.19266 5.67247C8.19266 6.34104 7.92708 6.98222 7.45433 7.45496C6.98159 7.92771 6.34041 8.19329 5.67184 8.19329C5.00328 8.19329 4.3621 7.92771 3.88935 7.45496C3.41661 6.98222 3.15102 6.34104 3.15102 5.67247Z" fill="#2C3941"/>
</svg>
