<svg width="19" height="18" viewBox="0 0 19 18" fill="none" xmlns="http://www.w3.org/2000/svg">
<path d="M2.5 18C1.95 18 1.47933 17.8043 1.088 17.413C0.696667 17.0217 0.500667 16.5507 0.5 16V2C0.5 1.45 0.696 0.979333 1.088 0.588C1.48 0.196667 1.95067 0.000666667 2.5 0H8.5C8.78333 0 9.021 0.0960001 9.213 0.288C9.405 0.48 9.50067 0.717333 9.5 1C9.49933 1.28267 9.40333 1.52033 9.212 1.713C9.02067 1.90567 8.78333 2.00133 8.5 2H2.5V16H8.5C8.78333 16 9.021 16.096 9.213 16.288C9.405 16.48 9.50067 16.7173 9.5 17C9.49933 17.2827 9.40333 17.5203 9.212 17.713C9.02067 17.9057 8.78333 18.0013 8.5 18H2.5ZM14.675 10H7.5C7.21667 10 6.97933 9.904 6.788 9.712C6.59667 9.52 6.50067 9.28267 6.5 9C6.49933 8.71733 6.59533 8.48 6.788 8.288C6.98067 8.096 7.218 8 7.5 8H14.675L12.8 6.125C12.6167 5.94167 12.525 5.71667 12.525 5.45C12.525 5.18333 12.6167 4.95 12.8 4.75C12.9833 4.55 13.2167 4.44567 13.5 4.437C13.7833 4.42833 14.025 4.52433 14.225 4.725L17.8 8.3C18 8.5 18.1 8.73333 18.1 9C18.1 9.26667 18 9.5 17.8 9.7L14.225 13.275C14.025 13.475 13.7877 13.571 13.513 13.563C13.2383 13.555 13.0007 13.4507 12.8 13.25C12.6167 13.05 12.5293 12.8127 12.538 12.538C12.5467 12.2633 12.6423 12.034 12.825 11.85L14.675 10Z" fill="#052659"/>
</svg>
