<svg width="24" height="15" viewBox="0 0 24 15" fill="none" xmlns="http://www.w3.org/2000/svg">
<path d="M4.5 4.01245V1.81245C4.5 1.37245 4.86 1.01245 5.3 1.01245H21.7C22.14 1.01245 22.5 1.37245 22.5 1.81245V10.2125C22.5 10.6525 22.14 11.0125 21.7 11.0125H19.5M2.3 4.01245H18.7C18.9122 4.01245 19.1157 4.09674 19.2657 4.24677C19.4157 4.3968 19.5 4.60028 19.5 4.81245V13.2125C19.5 13.4246 19.4157 13.6281 19.2657 13.7781C19.1157 13.9282 18.9122 14.0125 18.7 14.0125H2.3C2.08783 14.0125 1.88434 13.9282 1.73431 13.7781C1.58429 13.6281 1.5 13.4246 1.5 13.2125V4.81245C1.5 4.60028 1.58429 4.3968 1.73431 4.24677C1.88434 4.09674 2.08783 4.01245 2.3 4.01245ZM11.5 9.01245C11.5 9.27767 11.3946 9.53202 11.2071 9.71956C11.0196 9.90709 10.7652 10.0125 10.5 10.0125C10.2348 10.0125 9.98043 9.90709 9.79289 9.71956C9.60536 9.53202 9.5 9.27767 9.5 9.01245C9.5 8.74723 9.60536 8.49288 9.79289 8.30534C9.98043 8.11781 10.2348 8.01245 10.5 8.01245C10.7652 8.01245 11.0196 8.11781 11.2071 8.30534C11.3946 8.49288 11.5 8.74723 11.5 9.01245Z" stroke="white" stroke-width="1.5" stroke-miterlimit="10" stroke-linejoin="round"/>
</svg>
