<svg width="284" height="256" viewBox="0 0 284 256" fill="none" xmlns="http://www.w3.org/2000/svg">
<path d="M60.8957 107.599C64.4605 99.5313 60.8105 90.1016 52.7432 86.5367C44.6759 82.9719 35.2461 86.6219 31.6813 94.6892C28.1164 102.757 31.7664 112.186 39.8338 115.751C47.9011 119.316 57.3308 115.666 60.8957 107.599Z" stroke="#263238" stroke-linecap="round" stroke-linejoin="round"/>
<path d="M48.3563 114.225C55.5763 113.085 60.5054 106.308 59.3657 99.0885C58.2261 91.8685 51.4492 86.9394 44.2292 88.079C37.0092 89.2187 32.0801 95.9955 33.2198 103.216C34.3595 110.436 41.1363 115.365 48.3563 114.225Z" stroke="#263238" stroke-linecap="round" stroke-linejoin="round"/>
<path d="M37.8516 101.152H46.29V113.329" stroke="#263238" stroke-linecap="round" stroke-linejoin="round"/>
<path d="M113.217 7.27158L110.654 0.867188H69.0391V7.27158V27.8522V178.321H231.85V7.27158H113.217Z" fill="#A3A3A3"/>
<path d="M228.647 11.3877H71.3203V176.493H228.647V11.3877Z" fill="white"/>
<path d="M228.647 11.3877H71.3203V18.2456H228.647V11.3877Z" fill="#06468A"/>
<path d="M181.102 25.4263H123.552C122.976 25.4263 122.405 25.5399 121.873 25.7606C121.34 25.9814 120.857 26.3049 120.45 26.7128C120.042 27.1206 119.72 27.6047 119.5 28.1374C119.28 28.6701 119.167 29.241 119.168 29.8173V53.3871L124.356 47.8898H181.102C181.68 47.8898 182.252 47.7757 182.786 47.5542C183.32 47.3327 183.804 47.008 184.212 46.5988C184.62 46.1896 184.943 45.7039 185.163 45.1696C185.383 44.6353 185.495 44.0628 185.493 43.485V29.8173C185.493 28.6527 185.031 27.5358 184.207 26.7124C183.384 25.8889 182.267 25.4263 181.102 25.4263Z" fill="#A3A3A3"/>
<path d="M130.913 41.2448C134.321 41.2448 137.084 38.4821 137.084 35.0741C137.084 31.6661 134.321 28.9033 130.913 28.9033C127.505 28.9033 124.742 31.6661 124.742 35.0741C124.742 38.4821 127.505 41.2448 130.913 41.2448Z" fill="white"/>
<path d="M134.027 34.6553C134.027 34.6553 134.673 33.7895 134.817 34.6553C134.962 35.5212 133.711 36.5931 133.711 36.5931L134.027 34.6553Z" fill="white" stroke="#263238" stroke-linecap="round" stroke-linejoin="round"/>
<path d="M127.817 34.6553C127.817 34.6553 127.172 33.7895 127.027 34.6553C126.883 35.5212 128.134 36.5931 128.134 36.5931L127.817 34.6553Z" fill="white" stroke="#263238" stroke-linecap="round" stroke-linejoin="round"/>
<path d="M131.137 30.4289C131.137 30.4289 128.697 30.2365 128.134 31.8651C127.747 33.4266 127.747 35.0588 128.134 36.6203C128.319 37.1219 129.886 39.5614 130.326 39.7538C130.602 39.8469 130.894 39.8833 131.184 39.8609C131.475 39.8384 131.758 39.7576 132.016 39.6232C132.202 39.3758 133.768 37.0601 133.892 36.2492C133.937 35.0532 133.914 33.8556 133.823 32.6622C133.801 32.2414 133.66 31.8355 133.417 31.4914C133.174 31.1473 132.838 30.879 132.449 30.7175C132.031 30.5486 131.587 30.451 131.137 30.4289Z" fill="white" stroke="#263238" stroke-linecap="round" stroke-linejoin="round"/>
<path d="M133.823 32.6349C133.801 32.2141 133.66 31.8082 133.417 31.4641C133.173 31.1199 132.838 30.8516 132.449 30.6902C132.03 30.5213 131.587 30.4237 131.136 30.4016C131.136 30.4016 128.697 30.2092 128.133 31.8377C127.867 32.7657 127.774 33.7347 127.858 34.6964C127.975 34.8407 128.387 35.2736 128.326 34.6964C128.264 34.1191 128.181 32.1057 128.683 31.6797C129.184 31.2536 129.26 30.8826 129.975 31.4598C130.689 32.037 130.628 32.5386 131.349 32.147C132.071 31.7553 132.215 30.9925 132.861 31.2811C133.507 31.5697 133.294 32.9372 133.294 33.5831C133.294 34.2291 133.294 35.4522 133.727 34.8819C133.806 34.7592 133.87 34.6278 133.919 34.4902C133.892 33.8649 133.85 33.1777 133.823 32.6349Z" fill="#263238" stroke="#263238" stroke-linecap="round" stroke-linejoin="round"/>
<path d="M140.719 30.6699H153.5" stroke="white" stroke-width="2" stroke-linecap="round" stroke-linejoin="round"/>
<path d="M140.719 35.1221H179.839" stroke="white" stroke-linecap="round" stroke-linejoin="round"/>
<path d="M140.719 38.7988H179.839" stroke="white" stroke-linecap="round" stroke-linejoin="round"/>
<path d="M140.719 42.8672H179.839" stroke="white" stroke-linecap="round" stroke-linejoin="round"/>
<path d="M181.102 118.05H123.552C122.976 118.049 122.406 118.162 121.873 118.382C121.341 118.602 120.857 118.925 120.45 119.332C120.043 119.739 119.72 120.223 119.5 120.755C119.28 121.287 119.167 121.858 119.168 122.434V146.004L124.356 140.506H181.102C182.266 140.506 183.382 140.045 184.205 139.223C185.028 138.401 185.492 137.286 185.493 136.122V122.434C185.493 121.858 185.38 121.287 185.159 120.755C184.938 120.222 184.615 119.739 184.207 119.331C183.799 118.924 183.315 118.601 182.782 118.382C182.249 118.162 181.679 118.049 181.102 118.05Z" fill="#A3A3A3"/>
<path d="M136.278 131.7C138.766 129.348 138.876 125.425 136.525 122.937C134.173 120.449 130.25 120.339 127.762 122.69C125.275 125.042 125.164 128.965 127.516 131.453C129.867 133.941 133.79 134.051 136.278 131.7Z" fill="white"/>
<path d="M134.027 127.272C134.027 127.272 134.673 126.406 134.817 127.272C134.962 128.137 133.711 129.216 133.711 129.216L134.027 127.272Z" fill="white" stroke="#263238" stroke-linecap="round" stroke-linejoin="round"/>
<path d="M127.817 127.272C127.817 127.272 127.172 126.406 127.027 127.272C126.883 128.137 128.134 129.216 128.134 129.216L127.817 127.272Z" fill="white" stroke="#263238" stroke-linecap="round" stroke-linejoin="round"/>
<path d="M131.137 123.018C131.137 123.018 128.697 122.833 128.134 124.454C127.747 126.018 127.747 127.653 128.134 129.216C128.319 129.711 129.886 132.157 130.326 132.343C130.602 132.436 130.893 132.472 131.183 132.451C131.474 132.43 131.757 132.351 132.016 132.219C132.202 131.965 133.768 129.649 133.892 128.838C133.937 127.642 133.914 126.445 133.823 125.251C133.8 124.831 133.658 124.426 133.415 124.082C133.172 123.738 132.837 123.47 132.449 123.307C132.03 123.141 131.587 123.044 131.137 123.018Z" fill="white" stroke="#263238" stroke-linecap="round" stroke-linejoin="round"/>
<path d="M133.823 125.258C133.799 124.838 133.657 124.433 133.414 124.089C133.171 123.745 132.837 123.476 132.449 123.314C132.029 123.148 131.586 123.05 131.136 123.025C131.136 123.025 128.697 122.839 128.133 124.461C127.867 125.389 127.774 126.358 127.858 127.32C127.975 127.464 128.387 127.904 128.326 127.32C128.264 126.736 128.181 124.729 128.683 124.296C129.184 123.863 129.26 123.506 129.975 124.076C130.689 124.647 130.628 125.162 131.349 124.798C132.071 124.434 132.215 123.65 132.861 123.939C133.507 124.228 133.294 125.588 133.294 126.241C133.294 126.894 133.294 128.11 133.727 127.533C133.807 127.411 133.872 127.279 133.919 127.141C133.892 126.509 133.85 125.801 133.823 125.258Z" fill="#263238" stroke="#263238" stroke-linecap="round" stroke-linejoin="round"/>
<path d="M140.719 123.286H153.5" stroke="white" stroke-width="2" stroke-linecap="round" stroke-linejoin="round"/>
<path d="M140.719 127.739H179.839" stroke="white" stroke-linecap="round" stroke-linejoin="round"/>
<path d="M140.719 131.422H179.839" stroke="white" stroke-linecap="round" stroke-linejoin="round"/>
<path d="M140.719 135.49H179.839" stroke="white" stroke-linecap="round" stroke-linejoin="round"/>
<path d="M211.609 87.567H154.079C152.917 87.567 151.802 88.0289 150.979 88.8511C150.157 89.6733 149.695 90.7884 149.695 91.9511V105.639C149.695 106.802 150.157 107.917 150.979 108.74C151.802 109.562 152.917 110.024 154.079 110.024H210.833L216.021 115.521V91.9511C216.021 91.3731 215.906 90.8007 215.684 90.267C215.462 89.7333 215.137 89.2488 214.727 88.8413C214.317 88.4338 213.83 88.1115 213.295 87.8928C212.76 87.6741 212.187 87.5634 211.609 87.567Z" fill="#A3A3A3"/>
<path d="M161.444 103.385C164.852 103.385 167.615 100.623 167.615 97.2147C167.615 93.8067 164.852 91.0439 161.444 91.0439C158.036 91.0439 155.273 93.8067 155.273 97.2147C155.273 100.623 158.036 103.385 161.444 103.385Z" fill="white"/>
<path d="M164.551 96.789C164.551 96.789 165.239 95.93 165.342 96.789C165.445 97.6479 164.242 98.7337 164.242 98.7337L164.551 96.789Z" fill="white" stroke="#263238" stroke-linecap="round" stroke-linejoin="round"/>
<path d="M158.348 96.789C158.348 96.789 157.703 95.93 157.558 96.789C157.414 97.6479 158.692 98.7337 158.692 98.7337L158.348 96.789Z" fill="white" stroke="#263238" stroke-linecap="round" stroke-linejoin="round"/>
<path d="M161.671 92.5352C161.671 92.5352 159.231 92.3497 158.668 93.9714C158.277 95.5348 158.277 97.1701 158.668 98.7335C158.853 99.2282 160.42 101.675 160.853 101.86C161.129 101.953 161.42 101.989 161.71 101.968C162.001 101.947 162.284 101.868 162.543 101.736C162.736 101.482 164.296 99.1664 164.419 98.3555C164.471 97.1596 164.448 95.9616 164.351 94.7685C164.328 94.3477 164.187 93.9418 163.944 93.5977C163.701 93.2536 163.365 92.9853 162.976 92.8239C162.56 92.6572 162.119 92.5598 161.671 92.5352Z" fill="white" stroke="#263238" stroke-linecap="round" stroke-linejoin="round"/>
<path d="M164.351 94.7685C164.328 94.3477 164.187 93.9418 163.944 93.5977C163.701 93.2536 163.366 92.9853 162.976 92.8239C162.56 92.6572 162.119 92.5598 161.671 92.5352C161.671 92.5352 159.231 92.3497 158.668 93.9714C158.403 94.8996 158.307 95.868 158.386 96.83C158.51 96.9743 158.915 97.4141 158.853 96.8644C158.785 96.1772 158.709 94.2738 159.218 93.8409C159.726 93.4079 159.788 93.0506 160.509 93.6278C161.231 94.2051 161.155 94.7067 161.884 94.315C162.612 93.9233 162.75 93.1674 163.396 93.456C164.041 93.7447 163.828 95.1052 163.828 95.7581C163.828 96.4109 163.828 97.6271 164.254 97.0499C164.338 96.9296 164.402 96.7976 164.447 96.6582C164.419 96.0329 164.385 95.3183 164.351 94.7685Z" fill="#263238" stroke="#263238" stroke-linecap="round" stroke-linejoin="round"/>
<path d="M159.215 93.8411C159.491 94.2469 159.851 94.5887 160.271 94.8436C160.691 95.0984 161.16 95.2604 161.647 95.3185C162.111 95.4134 162.59 95.4136 163.054 95.3191C163.518 95.2246 163.958 95.0375 164.348 94.7688C164.348 94.7688 165.131 94.7688 165.131 93.8411C165.131 92.9135 165.392 93.3051 164.059 93.3051C162.726 93.3051 159.572 90.8176 159.215 93.8411Z" fill="#263238" stroke="#263238" stroke-linecap="round" stroke-linejoin="round"/>
<path d="M161.348 97.1875H158.922L159.183 97.9915C159.208 98.0671 159.255 98.1329 159.319 98.1798C159.384 98.2267 159.461 98.2522 159.54 98.2526H160.791C160.875 98.2519 160.957 98.2232 161.023 98.1709C161.089 98.1186 161.135 98.0458 161.155 97.964L161.348 97.1875Z" fill="white" stroke="#263238" stroke-linecap="round" stroke-linejoin="round"/>
<path d="M164.035 97.1875H161.609L161.871 97.9915C161.895 98.0671 161.943 98.1329 162.007 98.1798C162.071 98.2267 162.148 98.2522 162.228 98.2526H163.506C163.59 98.2532 163.673 98.2249 163.739 98.1724C163.805 98.1199 163.851 98.0464 163.87 97.964L164.035 97.1875Z" fill="white" stroke="#263238" stroke-linecap="round" stroke-linejoin="round"/>
<path d="M171.242 92.8032H184.023" stroke="white" stroke-width="2" stroke-linecap="round" stroke-linejoin="round"/>
<path d="M171.242 97.2559H210.363" stroke="white" stroke-linecap="round" stroke-linejoin="round"/>
<path d="M171.242 100.939H210.363" stroke="white" stroke-linecap="round" stroke-linejoin="round"/>
<path d="M171.242 105.007H210.363" stroke="white" stroke-linecap="round" stroke-linejoin="round"/>
<path d="M181.918 57.7783H124.368C123.203 57.7783 122.086 58.2409 121.263 59.0644C120.439 59.8879 119.977 61.0048 119.977 62.1693V85.7391L125.165 80.2418H181.918C183.081 80.2418 184.196 79.7799 185.018 78.9577C185.84 78.1355 186.302 77.0204 186.302 75.8577V62.1693C186.303 61.593 186.19 61.0222 185.97 60.4895C185.75 59.9568 185.427 59.4727 185.02 59.0648C184.613 58.657 184.129 58.3335 183.597 58.1127C183.065 57.8919 182.494 57.7783 181.918 57.7783Z" fill="#06468A"/>
<path d="M132.475 75.2106C135.835 74.6458 138.102 71.4634 137.537 68.1025C136.972 64.7416 133.79 62.475 130.429 63.0398C127.068 63.6046 124.802 66.787 125.366 70.1479C125.931 73.5088 129.114 75.7754 132.475 75.2106Z" fill="white"/>
<path d="M130.678 64.4369C130.386 64.3182 130.073 64.2597 129.758 64.265C129.442 64.2702 129.131 64.3391 128.843 64.4674C128.555 64.5957 128.296 64.7809 128.081 65.0118C127.866 65.2427 127.7 65.5146 127.593 65.8112C126.748 68.0445 127.806 71.123 127.806 72.3943C127.806 73.6655 129.084 74.7375 130.465 74.8406C131.847 74.9437 133.654 75.1567 134.712 73.4662C135.77 71.7758 135.351 68.0514 134.925 65.9074C134.499 63.7634 132.163 64.3269 130.678 64.4369Z" fill="white" stroke="#263238" stroke-linecap="round" stroke-linejoin="round"/>
<path d="M134.559 68.6973C134.559 68.6973 135.246 67.8315 135.356 68.6973C135.466 69.5631 134.25 70.642 134.25 70.642L134.559 68.6973Z" fill="white" stroke="#263238" stroke-linecap="round" stroke-linejoin="round"/>
<path d="M128.364 68.6973C128.364 68.6973 127.718 67.8315 127.574 68.6973C127.43 69.5631 128.68 70.642 128.68 70.642L128.364 68.6973Z" fill="white" stroke="#263238" stroke-linecap="round" stroke-linejoin="round"/>
<path d="M131.682 64.4439C131.682 64.4439 129.243 64.2584 128.679 65.8801C128.289 67.4435 128.289 69.0788 128.679 70.6422C128.865 71.1369 130.432 73.5833 130.865 73.7688C131.14 73.8614 131.432 73.8982 131.722 73.8769C132.012 73.8557 132.296 73.7769 132.555 73.6451C132.747 73.3908 134.307 71.0751 134.438 70.2642C134.482 69.0682 134.459 67.8707 134.369 66.6772C134.344 66.2571 134.203 65.8523 133.96 65.5086C133.717 65.1649 133.383 64.8961 132.995 64.7325C132.576 64.5652 132.133 64.4677 131.682 64.4439Z" fill="white" stroke="#263238" stroke-linecap="round" stroke-linejoin="round"/>
<path d="M129.83 65.076C129.83 65.076 133.775 68.6974 134.565 68.6974C135.355 68.6974 135.458 66.0312 134.613 64.753C133.768 63.4749 129.72 62.7259 129.83 65.076Z" fill="white" stroke="#263238" stroke-linecap="round" stroke-linejoin="round"/>
<path d="M140.773 62.6094H153.555" stroke="#263238" stroke-width="2" stroke-linecap="round" stroke-linejoin="round"/>
<path d="M140.773 67.0615H179.894" stroke="#263238" stroke-linecap="round" stroke-linejoin="round"/>
<path d="M140.773 70.7383H179.894" stroke="#263238" stroke-linecap="round" stroke-linejoin="round"/>
<path d="M140.773 74.8066H179.894" stroke="#263238" stroke-linecap="round" stroke-linejoin="round"/>
<path d="M112.857 24.5195H88.5312V174.913H112.857V24.5195Z" fill="#06468A"/>
<path d="M105.531 73.3461C108.572 70.3056 108.572 65.376 105.531 62.3356C102.491 59.2951 97.5613 59.2951 94.5209 62.3356C91.4804 65.376 91.4804 70.3056 94.5209 73.3461C97.5613 76.3865 102.491 76.3865 105.531 73.3461Z" fill="white"/>
<path d="M99.055 61.9287C99.055 61.9287 96.2376 60.8567 95.1657 63.6741C94.0937 66.4915 95.4337 70.374 95.4337 71.982C95.4337 73.5899 97.0416 74.9299 98.787 75.0673C100.532 75.2048 102.807 75.4659 104.147 73.3219C105.487 71.178 104.951 66.4846 104.415 63.8047C103.879 61.1247 100.931 61.7913 99.055 61.9287Z" fill="white" stroke="#263238" stroke-linecap="round" stroke-linejoin="round"/>
<path d="M103.953 67.3024C103.953 67.3024 104.771 66.2166 104.956 67.3024C105.142 68.3881 103.582 69.7555 103.582 69.7555L103.953 67.3024Z" fill="white" stroke="#263238" stroke-linecap="round" stroke-linejoin="round"/>
<path d="M96.1592 67.3024C96.1592 67.3024 95.3415 66.2166 95.156 67.3024C94.9704 68.3881 96.5303 69.7555 96.5303 69.7555L96.1592 67.3024Z" fill="white" stroke="#263238" stroke-linecap="round" stroke-linejoin="round"/>
<path d="M100.318 61.9358C100.318 61.9358 97.2393 61.7022 96.5246 63.7499C95.8099 65.7977 96.291 69.1236 96.5246 69.7558C96.7582 70.3879 98.7373 73.4665 99.2733 73.7001C99.8093 73.9337 101.17 73.8581 101.41 73.542C101.651 73.226 103.623 70.3055 103.774 69.2816C103.845 67.7838 103.827 66.2831 103.719 64.7875C103.689 64.2566 103.51 63.7449 103.203 63.3111C102.895 62.8772 102.472 62.5387 101.981 62.3343C101.452 62.112 100.89 61.9774 100.318 61.9358Z" fill="white" stroke="#263238" stroke-linecap="round" stroke-linejoin="round"/>
<path d="M97.9793 62.7261C97.9793 62.7261 102.954 67.2958 103.951 67.2958C104.947 67.2958 105.078 63.9356 104.006 62.3207C102.934 60.7059 97.8419 59.7851 97.9793 62.7261Z" fill="white" stroke="#263238" stroke-linecap="round" stroke-linejoin="round"/>
<path d="M101.812 49.2755C105.998 48.2922 108.594 44.1017 107.611 39.9157C106.628 35.7298 102.437 33.1336 98.2512 34.117C94.0652 35.1003 91.469 39.2908 92.4524 43.4767C93.4357 47.6627 97.6262 50.2589 101.812 49.2755Z" fill="white"/>
<path d="M103.953 41.1692C103.953 41.1692 104.771 40.0766 104.956 41.1692C105.142 42.2618 103.582 43.6155 103.582 43.6155L103.953 41.1692Z" fill="white" stroke="#263238" stroke-linecap="round" stroke-linejoin="round"/>
<path d="M96.1592 41.1692C96.1592 41.1692 95.3415 40.0766 95.156 41.1692C94.9704 42.2618 96.5303 43.6155 96.5303 43.6155L96.1592 41.1692Z" fill="white" stroke="#263238" stroke-linecap="round" stroke-linejoin="round"/>
<path d="M100.318 35.8026C100.318 35.8026 97.2393 35.5621 96.5246 37.6167C95.8099 39.6714 96.291 42.9835 96.5246 43.6157C96.7582 44.2479 98.7373 47.3264 99.2733 47.5669C99.8093 47.8074 101.17 47.725 101.41 47.4089C101.651 47.0928 103.623 44.1723 103.774 43.1415C103.837 41.6341 103.81 40.1242 103.692 38.62C103.663 38.0886 103.485 37.5762 103.177 37.1421C102.869 36.7079 102.445 36.3698 101.953 36.1668C101.432 35.9559 100.879 35.8329 100.318 35.8026Z" fill="white" stroke="#263238" stroke-linecap="round" stroke-linejoin="round"/>
<path d="M103.719 38.62C103.69 38.0886 103.512 37.5762 103.204 37.1421C102.897 36.7079 102.472 36.3698 101.98 36.1668C101.455 35.9544 100.897 35.8313 100.331 35.8026C100.331 35.8026 97.2528 35.5621 96.5381 37.6167C96.2046 38.7883 96.0859 40.0105 96.1877 41.2244C96.3457 41.403 96.8748 41.9528 96.7786 41.2244C96.6893 40.4066 96.6 37.9603 97.2322 37.4106C97.8644 36.8608 97.9606 36.4142 98.8676 37.1426C99.7747 37.871 99.6853 38.5169 100.592 38.0496C101.499 37.5824 101.678 36.5928 102.496 36.957C103.314 37.3212 103.046 39.0185 103.046 39.8638C103.046 40.709 103.046 42.2207 103.588 41.4992C103.689 41.3449 103.77 41.1787 103.829 41.0045C103.788 40.2073 103.719 39.3072 103.719 38.62Z" fill="#263238" stroke="#263238" stroke-linecap="round" stroke-linejoin="round"/>
<path d="M100.032 101.613C104.332 101.613 107.817 98.127 107.817 93.8271C107.817 89.5272 104.332 86.0415 100.032 86.0415C95.7318 86.0415 92.2461 89.5272 92.2461 93.8271C92.2461 98.127 95.7318 101.613 100.032 101.613Z" fill="white"/>
<path d="M103.953 93.2911C103.953 93.2911 104.771 92.2054 104.956 93.2911C105.142 94.3769 103.582 95.7443 103.582 95.7443L103.953 93.2911Z" fill="white" stroke="#263238" stroke-linecap="round" stroke-linejoin="round"/>
<path d="M96.1592 93.2911C96.1592 93.2911 95.3415 92.2054 95.156 93.2911C94.9704 94.3769 96.5303 95.7443 96.5303 95.7443L96.1592 93.2911Z" fill="white" stroke="#263238" stroke-linecap="round" stroke-linejoin="round"/>
<path d="M100.318 87.9247C100.318 87.9247 97.2393 87.6842 96.5246 89.7388C95.8099 91.7934 96.291 95.1124 96.5246 95.7446C96.7582 96.3768 98.7373 99.4553 99.2733 99.689C99.8093 99.9226 101.17 99.847 101.41 99.5309C101.651 99.2148 103.623 96.2944 103.774 95.2705C103.838 93.7607 103.81 92.2485 103.692 90.7421C103.663 90.2107 103.485 89.6983 103.177 89.2642C102.869 88.83 102.445 88.4919 101.953 88.2889C101.431 88.0812 100.879 87.9582 100.318 87.9247Z" fill="white" stroke="#263238" stroke-linecap="round" stroke-linejoin="round"/>
<path d="M103.719 90.7421C103.69 90.2107 103.512 89.6983 103.204 89.2642C102.897 88.83 102.472 88.4919 101.98 88.2889C101.454 88.0797 100.897 87.9567 100.331 87.9247C100.331 87.9247 97.2526 87.6842 96.538 89.7388C96.2047 90.9104 96.086 92.1326 96.1875 93.3464C96.3455 93.5251 96.8747 94.0817 96.7785 93.3808C96.6891 92.5699 96.5998 90.1167 97.232 89.5739C97.8642 89.031 97.9604 88.5706 98.8675 89.299C99.7745 90.0274 99.6852 90.6733 100.592 90.2061C101.499 89.7388 101.678 88.7561 102.496 89.1203C103.313 89.4845 103.045 91.1818 103.045 92.0202C103.045 92.8585 103.045 94.384 103.588 93.6556C103.688 93.5031 103.768 93.3393 103.829 93.1678C103.788 92.3363 103.719 91.4361 103.719 90.7421Z" fill="#263238" stroke="#263238" stroke-linecap="round" stroke-linejoin="round"/>
<path d="M97.2188 89.5737C97.9552 90.5482 99.0316 91.2096 100.234 91.4261C101.436 91.6426 102.675 91.3983 103.706 90.7419C103.706 90.7419 104.681 90.7419 104.681 89.5737C104.681 88.4055 105.025 88.8865 103.307 88.8865C101.589 88.8865 97.6723 85.7599 97.2188 89.5737Z" fill="#263238" stroke="#263238" stroke-linecap="round" stroke-linejoin="round"/>
<path d="M99.9124 93.7998H96.8477L97.1706 94.8099C97.2025 94.9047 97.2635 94.987 97.345 95.045C97.4265 95.103 97.5242 95.1338 97.6242 95.1329H99.1978C99.3033 95.1331 99.406 95.0981 99.4894 95.0333C99.5728 94.9686 99.6322 94.8779 99.6582 94.7756L99.9124 93.7998Z" fill="white" stroke="#263238" stroke-linecap="round" stroke-linejoin="round"/>
<path d="M103.3 93.7998H100.242L100.565 94.8099C100.598 94.9042 100.659 94.9858 100.74 95.0437C100.822 95.1016 100.919 95.1327 101.019 95.1329H102.599C102.704 95.134 102.806 95.0992 102.889 95.0342C102.971 94.9692 103.029 94.8779 103.053 94.7756L103.3 93.7998Z" fill="white" stroke="#263238" stroke-linecap="round" stroke-linejoin="round"/>
<path d="M95.0469 53.353H105.066" stroke="#263238" stroke-width="2" stroke-linecap="round" stroke-linejoin="round"/>
<path d="M95.0469 78.9639H105.066" stroke="#263238" stroke-width="2" stroke-linecap="round" stroke-linejoin="round"/>
<path d="M95.0469 104.581H105.066" stroke="#263238" stroke-width="2" stroke-linecap="round" stroke-linejoin="round"/>
<path d="M28.8184 154.689C28.8184 154.689 28.8184 152.305 25.4856 148.965C22.1529 145.626 19.9883 143.722 19.9883 143.722C19.9883 143.722 18.3185 149.22 21.4176 152.545C23.7016 154.891 26.1771 157.043 28.8184 158.977V154.689Z" fill="#06468A"/>
<path d="M24.0059 169.574C24.0059 169.574 24.0059 167.189 20.6731 163.856C17.3404 160.524 15.1758 158.606 15.1758 158.606C15.1758 158.606 13.506 164.104 16.6051 167.43C18.8891 169.775 21.3646 171.927 24.0059 173.862V169.574Z" fill="#06468A"/>
<path d="M28.6254 158.75C28.6254 158.75 28.8728 156.379 32.5491 153.411C36.2255 150.442 38.5481 148.779 38.5481 148.779C38.5481 148.779 39.6338 154.407 36.198 157.396C33.6836 159.488 30.9989 161.366 28.1719 163.011L28.6254 158.75Z" fill="#06468A"/>
<path d="M22.7683 176.328C22.7683 176.328 23.2699 173.999 27.2349 171.436C31.1999 168.873 33.6943 167.457 33.6943 167.457C33.6943 167.457 34.1753 173.167 30.444 175.779C27.7242 177.594 24.858 179.18 21.875 180.52L22.7683 176.328Z" fill="#06468A"/>
<path d="M23.8711 195.494C23.8711 195.494 23.8711 193.109 27.2107 189.776C30.5504 186.444 32.7081 184.526 32.7081 184.526C32.7081 184.526 34.3779 190.024 31.2788 193.35C28.9976 195.696 26.5243 197.847 23.8848 199.781L23.8711 195.494Z" fill="#06468A"/>
<path d="M23.8162 200.159C23.8162 200.159 24.1598 197.795 21.3287 194.023C18.4976 190.25 16.6491 188.051 16.6491 188.051C16.6491 188.051 14.2165 193.239 16.8071 196.984C18.7316 199.632 20.8739 202.115 23.2115 204.406L23.8162 200.159Z" fill="#06468A"/>
<path d="M20.5234 214.04C20.5234 214.04 20.5234 211.655 23.8631 208.316C27.2027 204.976 29.3604 203.073 29.3604 203.073C29.3604 203.073 31.0302 208.57 27.9311 211.889C25.6511 214.239 23.1778 216.392 20.5372 218.328L20.5234 214.04Z" fill="#06468A"/>
<path d="M22.756 226.608C22.756 226.608 22.1513 224.299 24.5357 220.231C26.9202 216.163 28.5076 213.765 28.5076 213.765C28.5076 213.765 31.5105 218.651 29.3597 222.657C27.7561 225.506 25.9173 228.216 23.8623 230.759L22.756 226.608Z" fill="#06468A"/>
<path d="M29.1335 154.078C28.9678 156.56 28.6626 159.031 28.2196 161.479C26.9002 168.296 23.6018 172.673 22.2825 178.857C20.9631 185.042 24.7563 192.944 23.7393 200.847C22.7223 208.749 19.6163 213.147 20.5233 218.424C21.4304 223.702 26.0207 237.988 26.0207 237.988" stroke="#263238" stroke-width="0.5" stroke-linecap="round" stroke-linejoin="round"/>
<path d="M28.5898 160.331L32.1837 157.568" stroke="#263238" stroke-width="0.5" stroke-linecap="round" stroke-linejoin="round"/>
<path d="M28.7588 157.157L27.2539 154.477" stroke="#263238" stroke-width="0.5" stroke-linecap="round" stroke-linejoin="round"/>
<path d="M22.4844 178.562C22.4844 178.562 25.501 176.308 28.5933 174.047" stroke="#263238" stroke-width="0.5" stroke-linecap="round" stroke-linejoin="round"/>
<path d="M24.0063 173.861C22.5053 170.962 20.7141 168.222 18.6602 165.684" stroke="#263238" stroke-width="0.5" stroke-linecap="round" stroke-linejoin="round"/>
<path d="M24.0078 198.881C25.7247 195.713 27.8937 192.813 30.4466 190.271" stroke="#263238" stroke-width="0.5" stroke-linecap="round" stroke-linejoin="round"/>
<path d="M23.4043 202.221C22.4913 200.073 21.4018 198.004 20.1472 196.036C18.388 193.439 18.1406 193.109 18.1406 193.109" stroke="#263238" stroke-width="0.5" stroke-linecap="round" stroke-linejoin="round"/>
<path d="M20.5234 218.417C21.2872 216.518 22.1946 214.681 23.2377 212.92C24.2819 211.298 25.4587 209.764 26.756 208.336" stroke="#263238" stroke-width="0.5" stroke-linecap="round" stroke-linejoin="round"/>
<path d="M23.8436 230.758C23.6703 228.951 23.981 227.129 24.7438 225.481C26.0013 223.055 27.4237 219.874 28.0078 218.609" stroke="#263238" stroke-width="0.5" stroke-linecap="round" stroke-linejoin="round"/>
<path d="M6.98193 186.533C6.98193 186.533 6.72768 185.035 8.45247 182.582C10.1773 180.129 11.3248 178.699 11.3248 178.699C11.3248 178.699 12.9672 181.956 11.3867 184.382C10.2118 186.093 8.89465 187.702 7.44921 189.192L6.98193 186.533Z" fill="#06468A"/>
<path d="M11.642 195.349C11.642 195.349 11.3878 193.858 13.1194 191.404C14.8511 188.951 15.9849 187.522 15.9849 187.522C15.9849 187.522 17.6272 190.779 16.0468 193.205C14.8699 194.915 13.5528 196.524 12.1093 198.015L11.642 195.349Z" fill="#06468A"/>
<path d="M7.55774 189.055C7.55774 189.055 7.13857 187.591 4.51359 186.134C1.88861 184.677 0.246283 183.88 0.246283 183.88C0.246283 183.88 0.177568 187.522 2.65824 189.027C4.46139 190.067 6.34854 190.955 8.29988 191.68L7.55774 189.055Z" fill="#06468A"/>
<path d="M13.1304 199.472C13.1304 199.472 12.567 198.098 9.80455 196.881C7.04214 195.665 5.32422 195.088 5.32422 195.088C5.32422 195.088 5.64032 198.723 8.25842 199.96C10.1633 200.809 12.1353 201.499 14.1543 202.021L13.1304 199.472Z" fill="#06468A"/>
<path d="M14.5263 211.58C14.5263 211.58 14.2651 210.082 11.7776 208.357C9.29005 206.632 7.80577 205.656 7.80577 205.656C7.80577 205.656 7.35224 209.271 9.65425 211.03C11.3377 212.255 13.1215 213.335 14.9867 214.26L14.5263 211.58Z" fill="#06468A"/>
<path d="M15.0756 214.507C15.0756 214.507 14.6015 213.064 15.9689 210.384C17.3364 207.704 18.2572 206.131 18.2572 206.131C18.2572 206.131 20.3187 209.12 19.123 211.752C18.2052 213.621 17.1317 215.409 15.9139 217.098L15.0756 214.507Z" fill="#06468A"/>
<path d="M19.2545 226.56C19.2545 226.56 19.4263 225.055 21.7833 223.186C24.1403 221.317 25.6246 220.272 25.6246 220.272C25.6246 220.272 26.3117 223.859 24.0853 225.77C22.4722 227.087 20.753 228.268 18.9453 229.302L19.2545 226.56Z" fill="#06468A"/>
<path d="M18.6347 222.835C18.6347 222.835 18.3736 221.344 15.886 219.613C13.3985 217.881 11.8798 216.919 11.8798 216.919C11.8798 216.919 11.4263 220.54 13.7352 222.293C15.4183 223.52 17.2021 224.602 19.0676 225.529L18.6347 222.835Z" fill="#06468A"/>
<path d="M18.6005 230.972C18.6005 230.972 18.731 229.46 16.7932 227.165C14.8554 224.87 13.5979 223.523 13.5979 223.523C13.5979 223.523 12.2236 226.911 14.0308 229.192C15.3515 230.804 16.8042 232.302 18.3737 233.672L18.6005 230.972Z" fill="#06468A"/>
<path d="M6.72656 186.182C7.10248 187.72 7.56126 189.236 8.1009 190.724C9.66764 194.847 12.2239 197.252 13.7082 200.97C15.1925 204.688 13.7082 210.068 15.1856 214.919C16.663 219.771 19.0887 222.19 19.1093 225.591C19.1299 228.993 17.8243 238.455 17.8243 238.455" stroke="#263238" stroke-width="0.5" stroke-linecap="round" stroke-linejoin="round"/>
<path d="M7.74767 190.044L5.19141 188.704" stroke="#263238" stroke-width="0.5" stroke-linecap="round" stroke-linejoin="round"/>
<path d="M7.29688 188.065L7.94968 186.224" stroke="#263238" stroke-width="0.5" stroke-linecap="round" stroke-linejoin="round"/>
<path d="M13.5567 200.846C13.5567 200.846 11.4196 199.761 9.23438 198.675" stroke="#263238" stroke-width="0.5" stroke-linecap="round" stroke-linejoin="round"/>
<path d="M12.0977 198.029C12.7236 196.047 13.5502 194.133 14.5646 192.319" stroke="#263238" stroke-width="0.5" stroke-linecap="round" stroke-linejoin="round"/>
<path d="M14.812 213.717C13.3909 211.919 11.7176 210.336 9.84375 209.017" stroke="#263238" stroke-width="0.5" stroke-linecap="round" stroke-linejoin="round"/>
<path d="M15.5508 215.751C15.8882 214.304 16.3479 212.888 16.9251 211.518C17.7428 209.704 17.8665 209.457 17.8665 209.457" stroke="#263238" stroke-width="0.5" stroke-linecap="round" stroke-linejoin="round"/>
<path d="M18.9922 228.175C19.8232 227.146 20.7429 226.192 21.7409 225.324C22.3765 224.854 22.9739 224.335 23.5275 223.771" stroke="#263238" stroke-width="0.5" stroke-linecap="round" stroke-linejoin="round"/>
<path d="M19.109 225.584C18.4258 224.478 17.6585 223.426 16.8138 222.437C15.9825 221.532 15.0793 220.695 14.1133 219.936" stroke="#263238" stroke-width="0.5" stroke-linecap="round" stroke-linejoin="round"/>
<path d="M18.3759 233.693C18.2892 232.538 17.8953 231.428 17.2352 230.477C16.1838 229.103 14.9469 227.254 14.4453 226.533" stroke="#263238" stroke-width="0.5" stroke-linecap="round" stroke-linejoin="round"/>
<path d="M10.9531 236.806H32.7982V252.81C32.7982 253.357 32.581 253.881 32.1944 254.268C31.8078 254.654 31.2834 254.871 30.7367 254.871H13.0627C12.516 254.871 11.9916 254.654 11.605 254.268C11.2184 253.881 11.0012 253.357 11.0012 252.81V236.806H10.9531Z" fill="#263238"/>
<path d="M32.6117 239.657H10.9522C10.5031 239.652 10.0742 239.47 9.75799 239.152C9.44174 238.833 9.2635 238.402 9.26173 237.953C9.25989 237.502 9.43652 237.068 9.75315 236.746C10.0698 236.424 10.5008 236.241 10.9522 236.235H32.6117C32.8364 236.236 33.0587 236.281 33.2659 236.368C33.4732 236.455 33.6613 236.582 33.8196 236.741C33.9778 236.901 34.1031 237.09 34.1882 237.298C34.2734 237.506 34.3167 237.729 34.3158 237.953C34.314 238.405 34.1339 238.837 33.8147 239.156C33.4955 239.475 33.0631 239.656 32.6117 239.657Z" fill="#263238"/>
<path d="M237.77 160.187H204.051C201.542 160.187 201.453 160.489 201.453 162.771V207.485H240.354V162.771C240.367 160.489 240.278 160.187 237.77 160.187Z" fill="#06468A" stroke="#263238" stroke-linecap="round" stroke-linejoin="round"/>
<path d="M222.073 220.067H218.953V245.258H222.073V220.067Z" fill="#263238"/>
<path d="M223.943 224.98H217.078V245.884H223.943V224.98Z" fill="#263238"/>
<path d="M231.431 214.446H209.586V221.936H231.431V214.446Z" fill="#263238"/>
<path d="M198.096 255.133C198.938 255.133 199.621 254.45 199.621 253.608C199.621 252.765 198.938 252.082 198.096 252.082C197.253 252.082 196.57 252.765 196.57 253.608C196.57 254.45 197.253 255.133 198.096 255.133Z" fill="#263238"/>
<path d="M244.446 253.608C244.446 253.306 244.356 253.011 244.188 252.76C244.021 252.509 243.783 252.314 243.504 252.198C243.225 252.083 242.918 252.052 242.622 252.111C242.327 252.17 242.055 252.316 241.841 252.529C241.628 252.742 241.483 253.014 241.424 253.31C241.365 253.606 241.395 253.913 241.511 254.191C241.626 254.47 241.822 254.708 242.073 254.876C242.323 255.044 242.618 255.133 242.92 255.133C243.325 255.133 243.713 254.972 243.999 254.686C244.285 254.4 244.446 254.012 244.446 253.608Z" fill="#263238"/>
<path d="M217.074 245.884L196.391 250.825V252.261L220.263 250.289V245.794L217.074 245.884Z" fill="#263238"/>
<path d="M223.942 245.884L244.633 250.825V252.261L220.754 250.289V245.794L223.942 245.884Z" fill="#263238"/>
<path d="M220.595 255.133C220.449 255.133 220.305 255.105 220.171 255.049C220.037 254.993 219.915 254.912 219.812 254.809C219.71 254.706 219.628 254.584 219.572 254.45C219.517 254.316 219.488 254.172 219.488 254.027V249.423C219.488 249.129 219.605 248.847 219.812 248.638C220.019 248.429 220.301 248.311 220.595 248.31C220.889 248.311 221.17 248.429 221.377 248.638C221.585 248.847 221.701 249.129 221.701 249.423V254.027C221.701 254.172 221.672 254.316 221.617 254.45C221.561 254.584 221.48 254.706 221.377 254.809C221.274 254.912 221.152 254.993 221.018 255.049C220.884 255.105 220.74 255.133 220.595 255.133Z" fill="#263238"/>
<path d="M218.947 252.618H222.238V245.795H218.947V252.618Z" fill="#263238"/>
<path d="M240.627 204.187H201.073C200.22 204.187 199.527 204.879 199.527 205.733V213.669C199.527 214.523 200.22 215.216 201.073 215.216H240.627C241.481 215.216 242.173 214.523 242.173 213.669V205.733C242.173 204.879 241.481 204.187 240.627 204.187Z" fill="#06468A" stroke="#263238" stroke-linecap="round" stroke-linejoin="round"/>
<path d="M208.947 189.46L206.391 194.607L213.242 203.987H232.764L237.382 196.085L235.114 189.46H208.947Z" fill="#263238" stroke="#263238" stroke-linecap="round" stroke-linejoin="round"/>
<path d="M206.391 194.607C206.391 194.607 202.604 196.985 201.718 200.881C201.285 202.792 205.051 209.505 207.215 210.227C209.277 210.914 220.849 202.723 220.849 202.723" fill="#263238"/>
<path d="M206.391 194.607C206.391 194.607 202.604 196.985 201.718 200.881C201.285 202.792 205.051 209.505 207.215 210.227C209.277 210.914 220.849 202.723 220.849 202.723" stroke="#263238" stroke-linecap="round" stroke-linejoin="round"/>
<path d="M207.25 196.607C207.25 196.607 202.783 195.92 201.67 199.143C200.893 201.404 201.91 208.076 202.165 208.839C202.419 209.602 206.741 246.633 206.741 246.633H212.829L214.891 199.906" fill="#263238"/>
<path d="M207.25 196.607C207.25 196.607 202.783 195.92 201.67 199.143C200.893 201.404 201.91 208.076 202.165 208.839C202.419 209.602 206.741 246.633 206.741 246.633H212.829L214.891 199.906" stroke="#263238" stroke-linecap="round" stroke-linejoin="round"/>
<path d="M206.741 246.633L206.054 249.471L199.375 253.477C199.375 253.477 199.588 254.742 200.598 254.742H212.17C212.383 254.747 212.596 254.707 212.792 254.623C212.988 254.538 213.163 254.412 213.306 254.254C213.448 254.095 213.555 253.907 213.617 253.703C213.68 253.498 213.697 253.283 213.668 253.072L212.857 246.605L206.741 246.633Z" fill="white" stroke="#263238" stroke-linecap="round" stroke-linejoin="round"/>
<path d="M199.41 253.566C199.479 253.848 199.761 254.741 200.613 254.741H212.185C212.522 254.74 212.848 254.623 213.108 254.408C213.369 254.194 213.547 253.897 213.614 253.566H199.41Z" fill="white" stroke="#263238" stroke-linecap="round" stroke-linejoin="round"/>
<path d="M206.07 249.471C207.695 249.368 209.326 249.479 210.922 249.801" stroke="#263238" stroke-linecap="round" stroke-linejoin="round"/>
<path d="M210.569 252.103L208.617 254.576" stroke="#263238" stroke-linecap="round" stroke-linejoin="round"/>
<path d="M236.345 194.607C236.345 194.607 240.131 196.985 241.017 200.881C241.45 202.792 237.685 209.505 235.52 210.227C233.459 210.914 221.887 202.723 221.887 202.723" fill="#263238"/>
<path d="M236.345 194.607C236.345 194.607 240.131 196.985 241.017 200.881C241.45 202.792 237.685 209.505 235.52 210.227C233.459 210.914 221.887 202.723 221.887 202.723" stroke="#263238" stroke-linecap="round" stroke-linejoin="round"/>
<path d="M235.458 196.607C235.458 196.607 239.925 195.92 241.038 199.143C241.815 201.404 240.798 208.076 240.544 208.839C240.289 209.602 235.967 246.633 235.967 246.633H229.879L227.852 199.906" fill="#263238"/>
<path d="M235.458 196.607C235.458 196.607 239.925 195.92 241.038 199.143C241.815 201.404 240.798 208.076 240.544 208.839C240.289 209.602 235.967 246.633 235.967 246.633H229.879L227.852 199.906" stroke="#263238" stroke-linecap="round" stroke-linejoin="round"/>
<path d="M235.964 246.633L236.651 249.471L243.33 253.477C243.33 253.477 243.117 254.741 242.107 254.741H230.522C230.314 254.741 230.109 254.697 229.92 254.611C229.731 254.526 229.563 254.402 229.425 254.247C229.288 254.092 229.184 253.909 229.122 253.711C229.06 253.514 229.041 253.305 229.065 253.099L229.876 246.633H235.964Z" fill="white" stroke="#263238" stroke-linecap="round" stroke-linejoin="round"/>
<path d="M243.297 253.566C243.229 253.848 242.947 254.741 242.095 254.741H230.523C230.186 254.74 229.86 254.623 229.599 254.408C229.339 254.194 229.16 253.897 229.094 253.566H243.297Z" fill="white" stroke="#263238" stroke-linecap="round" stroke-linejoin="round"/>
<path d="M236.64 249.471C235.016 249.368 233.385 249.479 231.789 249.801" stroke="#263238" stroke-linecap="round" stroke-linejoin="round"/>
<path d="M232.141 252.103L234.092 254.576" stroke="#263238" stroke-linecap="round" stroke-linejoin="round"/>
<path d="M225.707 148.794L224.945 149.179L218.094 149L217.365 149.632V149.179L216.602 148.794L202.914 155.164L208.947 189.46H235.115L239.272 155.164L225.707 148.794Z" fill="white" stroke="#263238" stroke-linecap="round" stroke-linejoin="round"/>
<path d="M216.236 147.584C216.236 147.584 213.426 149.474 213.426 150.065C213.426 150.656 213.027 156.937 213.027 156.937L216.573 155.755L221.383 159.878L226.056 155.934L230.392 156.923L229.018 149.632L223.699 146.086L216.236 147.584Z" fill="white" stroke="#263238" stroke-linecap="round" stroke-linejoin="round"/>
<path d="M239.27 155.164L251.24 175.456L242.273 176.487L237.531 169.869L239.27 155.164Z" fill="white" stroke="#263238" stroke-linecap="round" stroke-linejoin="round"/>
<path d="M203.042 155.164L191.141 175.456L200.108 176.487L206.945 168.791L203.042 155.164Z" fill="white" stroke="#263238" stroke-linecap="round" stroke-linejoin="round"/>
<path d="M226.441 151.797L221.363 159.919L216.395 151.797V139.95H226.441V151.797Z" fill="white" stroke="#263238" stroke-linecap="round" stroke-linejoin="round"/>
<path d="M215.303 136.803C215.303 136.803 213.441 136.315 213.626 137.62C213.812 138.926 214.375 141.352 215.303 141.908L216.238 142.465L215.303 136.803Z" fill="white" stroke="#263238" stroke-linecap="round" stroke-linejoin="round"/>
<path d="M227.782 136.803C227.782 136.803 229.644 136.315 229.459 137.621C229.273 138.926 228.71 141.352 227.782 141.909L226.848 142.465L227.782 136.803Z" fill="white" stroke="#263238" stroke-linecap="round" stroke-linejoin="round"/>
<path d="M228.655 134.638C228.597 132.799 227.826 131.053 226.504 129.772C225.183 128.491 223.414 127.774 221.573 127.774C219.733 127.774 217.964 128.491 216.642 129.772C215.321 131.053 214.55 132.799 214.492 134.638C214.494 135.373 214.608 136.103 214.829 136.803L216.636 145.283L219.928 149.9H223.102L226.298 145.881L228.249 137.002C228.518 136.243 228.655 135.444 228.655 134.638Z" fill="white" stroke="#263238" stroke-linecap="round" stroke-linejoin="round"/>
<path d="M227.14 134.082C226.74 134.967 226.487 135.912 226.391 136.878C226.549 138.033 226.863 139.162 227.325 140.232C227.325 140.232 229.558 135.573 229.387 133.896C229.215 132.219 226.947 133.504 227.14 134.082Z" fill="#263238" stroke="#263238" stroke-linecap="round" stroke-linejoin="round"/>
<path d="M215.396 139.861C215.396 139.861 215.396 139.565 215.444 139.132C215.547 137.93 215.828 135.607 216.516 135.202C217.443 134.638 217.347 131.697 217.347 131.697C217.347 131.697 216.048 133.168 220.522 134.659C224.995 136.15 228.623 135.573 231.049 132.405C233.475 129.237 231.235 126.997 230.864 128.117C230.493 129.237 229.744 130.728 228.438 129.608C227.132 128.488 225.085 126.255 221.36 126.255C217.636 126.255 215.952 129.608 215.952 129.608C215.353 129.899 214.844 130.348 214.481 130.906C214.118 131.464 213.914 132.111 213.891 132.776C213.904 135.009 215.396 139.861 215.396 139.861Z" fill="#263238" stroke="#263238" stroke-linecap="round" stroke-linejoin="round"/>
<path d="M228.507 133.958C225.868 134.068 223.621 132.288 221.333 130.721C219.044 129.155 217.484 130.721 217.484 130.721C217.663 129.87 218.117 129.1 218.776 128.533C219.436 127.965 220.264 127.63 221.133 127.581C224.246 127.382 225.256 131.656 228.163 132.027" stroke="white" stroke-width="0.5" stroke-linecap="round" stroke-linejoin="round"/>
<path d="M221.068 139.689H214.828L215.515 141.75C215.573 141.948 215.693 142.122 215.858 142.246C216.023 142.37 216.223 142.437 216.429 142.438H219.652C219.866 142.437 220.075 142.365 220.244 142.233C220.413 142.101 220.533 141.917 220.587 141.709L221.068 139.689Z" fill="white" stroke="#263238" stroke-linecap="round" stroke-linejoin="round"/>
<path d="M227.983 139.689H221.75L222.437 141.75C222.497 141.948 222.619 142.122 222.785 142.245C222.95 142.369 223.151 142.436 223.358 142.438H226.581C226.795 142.437 227.003 142.365 227.172 142.233C227.341 142.101 227.462 141.917 227.515 141.709L227.983 139.689Z" fill="white" stroke="#263238" stroke-linecap="round" stroke-linejoin="round"/>
<path d="M214.832 139.703L214.516 136.659" stroke="#263238" stroke-linecap="round" stroke-linejoin="round"/>
<path d="M227.984 139.702L228.699 136.816" stroke="#263238" stroke-linecap="round" stroke-linejoin="round"/>
<path d="M221.07 139.703H221.751" stroke="#263238" stroke-linecap="round" stroke-linejoin="round"/>
<path d="M220.898 140.672H221.998" stroke="#263238" stroke-linecap="round" stroke-linejoin="round"/>
<path d="M222.704 144.609C222.704 144.609 222.237 145.297 221.68 145.297C221.124 145.297 220.656 144.609 220.656 144.609" stroke="#263238" stroke-linecap="round" stroke-linejoin="round"/>
<path d="M227.81 173.965C227.81 173.965 225.205 171.69 224.546 171.903C223.886 172.116 223.116 174.975 223.68 175.703C224.243 176.432 225.487 173.944 225.487 173.944L227.83 177.181L227.81 173.965Z" fill="white" stroke="#263238" stroke-linecap="round" stroke-linejoin="round"/>
<path d="M227.412 174.975L225.001 175.841C224.444 176.518 223.757 177.077 222.98 177.483C221.874 177.971 221.31 178.493 222.534 179.029C223.757 179.565 225.516 177.655 225.516 177.655L228.265 177.937C228.411 177.688 228.505 177.413 228.541 177.126C228.577 176.84 228.555 176.55 228.475 176.273C228.395 175.996 228.26 175.738 228.077 175.515C227.895 175.291 227.668 175.108 227.412 174.975Z" fill="white" stroke="#263238" stroke-linecap="round" stroke-linejoin="round"/>
<path d="M229.777 179.62C230.51 180.025 231.358 180.168 232.182 180.026C233.516 179.778 235.659 176.995 235.659 176.995L234.581 175.003L230.458 174.899L229.777 179.62Z" fill="white" stroke="#263238" stroke-linecap="round" stroke-linejoin="round"/>
<path d="M227.528 172.975C227.528 172.975 226.002 176.968 226.188 177.621C226.373 178.273 228.936 179.854 229.775 179.62C230.317 179.469 231.431 178.081 232.145 177.146C232.317 176.918 232.391 176.631 232.353 176.348C232.314 176.065 232.165 175.809 231.939 175.635C230.613 174.625 228.098 172.81 227.528 172.975Z" fill="white" stroke="#263238" stroke-linecap="round" stroke-linejoin="round"/>
<path d="M227.422 178.576L229.298 173.958" stroke="#263238" stroke-linecap="round" stroke-linejoin="round"/>
<path d="M231.26 175.442L228.676 179.366" stroke="#263238" stroke-linecap="round" stroke-linejoin="round"/>
<path d="M232.781 174.803C233.426 176.437 233.627 178.213 233.365 179.95L233.331 180.142L249.459 181.517C250.204 181.413 250.884 181.039 251.372 180.466C251.859 179.894 252.12 179.163 252.104 178.411V177.222C252.097 176.81 252.006 176.404 251.838 176.028C251.67 175.652 251.429 175.313 251.127 175.033C250.826 174.752 250.471 174.534 250.084 174.393C249.697 174.253 249.286 174.191 248.875 174.212L232.781 174.803Z" fill="white" stroke="#263238" stroke-linecap="round" stroke-linejoin="round"/>
<path d="M209.848 173.965C209.848 173.965 212.445 171.691 213.105 171.904C213.765 172.117 214.541 174.975 213.978 175.704C213.414 176.432 212.17 173.945 212.17 173.945L209.82 177.181L209.848 173.965Z" fill="white" stroke="#263238" stroke-linecap="round" stroke-linejoin="round"/>
<path d="M210.266 174.975L212.685 175.841C213.24 176.52 213.927 177.079 214.706 177.483C215.805 177.971 216.368 178.493 215.152 179.029C213.936 179.565 212.17 177.655 212.17 177.655L209.421 177.937C209.276 177.688 209.182 177.413 209.146 177.128C209.11 176.842 209.132 176.552 209.211 176.275C209.29 175.998 209.424 175.741 209.605 175.517C209.787 175.294 210.012 175.109 210.266 174.975Z" fill="white" stroke="#263238" stroke-linecap="round" stroke-linejoin="round"/>
<path d="M207.874 179.62C207.142 180.025 206.294 180.168 205.469 180.026C204.136 179.778 201.992 176.995 201.992 176.995L203.071 175.003L207.194 174.899L207.874 179.62Z" fill="white" stroke="#263238" stroke-linecap="round" stroke-linejoin="round"/>
<path d="M210.128 172.975C210.128 172.975 211.653 176.968 211.461 177.621C211.269 178.273 208.712 179.854 207.874 179.62C207.338 179.469 206.218 178.081 205.51 177.146C205.339 176.918 205.264 176.631 205.303 176.348C205.342 176.065 205.49 175.809 205.716 175.635C207.036 174.625 209.544 172.81 210.128 172.975Z" fill="white" stroke="#263238" stroke-linecap="round" stroke-linejoin="round"/>
<path d="M210.228 178.576L208.352 173.958" stroke="#263238" stroke-linecap="round" stroke-linejoin="round"/>
<path d="M206.398 175.442L208.982 179.366" stroke="#263238" stroke-linecap="round" stroke-linejoin="round"/>
<path d="M204.872 174.803C204.387 176.473 204.24 178.223 204.439 179.95V180.142L192.27 181.517C191.108 181.297 190.249 179.971 190.27 178.411V177.222C190.27 175.483 191.397 174.123 192.702 174.212L204.872 174.803Z" fill="white" stroke="#263238" stroke-linecap="round" stroke-linejoin="round"/>
<path d="M233.232 177.737H196.812V179.029H233.232V177.737Z" fill="white" stroke="#263238" stroke-linecap="round" stroke-linejoin="round"/>
<path d="M253.561 177.875H235.406V178.892H253.561V177.875Z" fill="white" stroke="#263238" stroke-linecap="round" stroke-linejoin="round"/>
<path d="M268.006 143.372H225.656V170.68H268.006V143.372Z" fill="white" stroke="#263238" stroke-linecap="round" stroke-linejoin="round"/>
<path d="M268.002 143.372H226.875V170.68H268.002V143.372Z" fill="#263238" stroke="#263238" stroke-linecap="round" stroke-linejoin="round"/>
<path d="M254.061 155.961H243.781V179.352H254.061V155.961Z" fill="white" stroke="#263238" stroke-linecap="round" stroke-linejoin="round"/>
<path d="M255.007 155.961H244.727V179.352H255.007V155.961Z" fill="#263238" stroke="#263238" stroke-linecap="round" stroke-linejoin="round"/>
<path d="M244.047 156.236H255.248V172.254" stroke="white" stroke-linecap="round" stroke-linejoin="round"/>
<path d="M161.356 171.058H153.742V179.895H161.356V171.058Z" fill="white" stroke="#263238" stroke-linecap="round" stroke-linejoin="round"/>
<path d="M174.74 145.488H139.371V172.013H174.74V145.488Z" fill="#263238" stroke="#263238" stroke-linecap="round" stroke-linejoin="round"/>
<path d="M172.89 146.876H141.219V170.631H172.89V146.876Z" fill="white" stroke="#263238" stroke-linecap="round" stroke-linejoin="round"/>
<path d="M137.996 213.443L145.259 245.616L148.558 244.695L148.338 212.062L137.996 213.443Z" fill="white" stroke="#263238" stroke-linecap="round" stroke-linejoin="round"/>
<path d="M145.261 245.616L140.863 253.456L139.977 255.071H144.821L148.559 249.766V254.844H150.188V246.31L148.559 244.695L145.261 245.616Z" fill="white" stroke="#263238" stroke-linecap="round" stroke-linejoin="round"/>
<path d="M165.366 213.443L158.103 245.616L154.805 244.695L155.025 212.062L165.366 213.443Z" fill="white" stroke="#263238" stroke-linecap="round" stroke-linejoin="round"/>
<path d="M158.1 245.616L162.505 253.456L163.384 255.071H158.54L154.801 249.766V254.844H153.18V246.31L154.801 244.695L158.1 245.616Z" fill="white" stroke="#263238" stroke-linecap="round" stroke-linejoin="round"/>
<path d="M160.796 173.58H153.086V182.534H160.796V173.58Z" fill="white" stroke="#263238" stroke-linecap="round" stroke-linejoin="round"/>
<path d="M150.834 202.723C150.834 204.552 150.292 206.34 149.276 207.862C148.259 209.383 146.815 210.568 145.125 211.268C143.435 211.968 141.575 212.151 139.781 211.794C137.987 211.438 136.339 210.557 135.045 209.263C133.751 207.97 132.871 206.322 132.514 204.527C132.157 202.733 132.34 200.873 133.04 199.183C133.74 197.493 134.926 196.049 136.447 195.032C137.968 194.016 139.756 193.474 141.585 193.474C142.8 193.474 144.003 193.713 145.125 194.178C146.247 194.643 147.267 195.324 148.125 196.183C148.984 197.042 149.666 198.061 150.13 199.183C150.595 200.306 150.834 201.508 150.834 202.723Z" fill="#263238" stroke="#263238" stroke-linecap="round" stroke-linejoin="round"/>
<path d="M151.703 202.723C151.703 204.552 152.246 206.34 153.262 207.862C154.278 209.383 155.723 210.568 157.413 211.268C159.103 211.968 160.963 212.151 162.757 211.794C164.551 211.438 166.199 210.557 167.493 209.263C168.786 207.97 169.667 206.322 170.024 204.527C170.381 202.733 170.198 200.873 169.498 199.183C168.798 197.493 167.612 196.049 166.091 195.032C164.57 194.016 162.782 193.474 160.952 193.474C158.499 193.474 156.147 194.448 154.412 196.183C152.678 197.917 151.703 200.27 151.703 202.723Z" fill="#263238" stroke="#263238" stroke-linecap="round" stroke-linejoin="round"/>
<path d="M148.141 145.523L148.601 150.972L153.823 151.425L154.05 146.203C154.05 146.203 149.762 143.475 148.141 145.523Z" fill="white" stroke="#263238" stroke-linecap="round" stroke-linejoin="round"/>
<path d="M144.419 151.439C145.472 150.389 146.878 149.769 148.363 149.701C151.078 149.447 155.187 149.598 156.651 150.601C157.623 151.323 158.445 152.229 159.069 153.267L142.516 152.985L144.419 151.439Z" fill="white" stroke="#263238" stroke-linecap="round" stroke-linejoin="round"/>
<path d="M168.376 156.607C166.61 154.6 164.665 153.116 162.583 152.937C156.24 152.381 149.424 151.391 143.005 152.821C140.38 153.398 137.508 154.195 135.447 155.961C133.385 157.727 132.698 160.4 131.248 162.668L126.575 170.117C124.624 173.195 122.677 176.297 120.734 179.421C120.734 179.421 119.896 181.936 123.036 183.193C126.177 184.451 128.066 182.561 128.066 182.561L135.488 171.299L137.879 192.91H163.861L166.61 169.141C167.496 170.735 174.65 183.413 177.213 183.64C179.961 183.894 181.439 183.145 182.428 180.41C183.528 177.38 177.233 170.068 175.721 167.821C173.962 165.155 171.434 160.091 168.376 156.607Z" fill="white" stroke="#263238" stroke-linecap="round" stroke-linejoin="round"/>
<path d="M168.85 154.958L177.35 167.609L165.826 173.278L138.436 173.656L127.668 164.592L134.849 154.387C134.849 154.387 141.274 151.178 152.028 150.986C162.782 150.794 168.85 154.958 168.85 154.958Z" fill="white" stroke="#263238" stroke-linecap="round" stroke-linejoin="round"/>
<path d="M137.88 192.883L135.915 200.758C135.572 202.134 135.743 203.588 136.396 204.846L140.093 211.972H162.625L166.192 205.314C166.654 204.449 166.924 203.494 166.981 202.515C167.038 201.536 166.881 200.557 166.522 199.645L163.862 192.883H137.88Z" fill="#263238" stroke="#263238" stroke-linecap="round" stroke-linejoin="round"/>
<path d="M154.3 206.983H149.586V224.967H154.3V206.983Z" fill="#263238" stroke="#263238" stroke-linecap="round" stroke-linejoin="round"/>
<path d="M155.488 222.135H148.383V246.53H155.488V222.135Z" fill="#263238" stroke="#263238" stroke-linecap="round" stroke-linejoin="round"/>
<path d="M155.346 245.932L152.055 245.045V244.887L151.753 244.963L151.457 244.887V245.045L148.166 245.932L125.723 250.123V251.766H151.457H152.055H177.789V250.123L155.346 245.932Z" fill="#263238" stroke="#263238" stroke-linecap="round" stroke-linejoin="round"/>
<path d="M127.667 254.391C128.536 254.391 129.241 253.686 129.241 252.817C129.241 251.948 128.536 251.244 127.667 251.244C126.798 251.244 126.094 251.948 126.094 252.817C126.094 253.686 126.798 254.391 127.667 254.391Z" fill="#263238" stroke="#263238" stroke-linecap="round" stroke-linejoin="round"/>
<path d="M153.327 252.817C153.327 253.129 153.235 253.433 153.062 253.692C152.889 253.95 152.643 254.152 152.355 254.271C152.068 254.39 151.752 254.421 151.446 254.361C151.141 254.3 150.861 254.15 150.641 253.93C150.421 253.71 150.271 253.43 150.21 253.124C150.149 252.819 150.18 252.503 150.299 252.215C150.419 251.928 150.62 251.682 150.879 251.509C151.138 251.336 151.442 251.244 151.753 251.244C151.96 251.243 152.165 251.283 152.357 251.362C152.548 251.44 152.722 251.556 152.868 251.703C153.014 251.849 153.13 252.023 153.209 252.214C153.288 252.405 153.328 252.61 153.327 252.817Z" fill="#263238" stroke="#263238" stroke-linecap="round" stroke-linejoin="round"/>
<path d="M177.561 252.817C177.561 253.129 177.469 253.433 177.296 253.692C177.122 253.951 176.876 254.153 176.588 254.272C176.3 254.391 175.984 254.421 175.678 254.36C175.373 254.299 175.092 254.148 174.873 253.928C174.653 253.707 174.503 253.426 174.443 253.12C174.384 252.814 174.416 252.498 174.536 252.21C174.656 251.923 174.859 251.678 175.118 251.506C175.378 251.333 175.683 251.242 175.995 251.244C176.201 251.244 176.405 251.284 176.596 251.364C176.786 251.443 176.959 251.559 177.105 251.705C177.25 251.851 177.366 252.025 177.444 252.216C177.522 252.406 177.562 252.611 177.561 252.817Z" fill="#263238" stroke="#263238" stroke-linecap="round" stroke-linejoin="round"/>
<path d="M166.383 212.666H137.522C136.719 212.667 135.923 212.509 135.181 212.202C134.438 211.895 133.764 211.445 133.196 210.877C132.627 210.309 132.177 209.634 131.87 208.892C131.563 208.149 131.405 207.354 131.406 206.55L134.842 163.369C134.842 162.018 135.378 160.722 136.333 159.766C137.288 158.81 138.583 158.272 139.934 158.27H163.985C164.654 158.27 165.317 158.402 165.935 158.658C166.553 158.915 167.115 159.29 167.588 159.764C168.061 160.237 168.436 160.8 168.691 161.418C168.947 162.037 169.078 162.7 169.077 163.369L172.513 206.55C172.513 207.355 172.355 208.152 172.048 208.895C171.74 209.638 171.288 210.314 170.718 210.882C170.149 211.45 169.473 211.9 168.729 212.206C167.985 212.513 167.188 212.669 166.383 212.666Z" fill="#06468A" stroke="#263238" stroke-linecap="round" stroke-linejoin="round"/>
<path d="M166.383 214.941H137.522C136.719 214.941 135.923 214.784 135.181 214.477C134.438 214.17 133.764 213.719 133.196 213.151C132.627 212.583 132.177 211.909 131.87 211.166C131.563 210.424 131.405 209.628 131.406 208.825L134.842 165.643C134.842 164.292 135.378 162.996 136.333 162.04C137.288 161.084 138.583 160.546 139.934 160.544H163.985C164.654 160.544 165.317 160.676 165.935 160.933C166.553 161.189 167.115 161.565 167.588 162.038C168.061 162.512 168.436 163.074 168.691 163.693C168.947 164.311 169.078 164.974 169.077 165.643L172.513 208.825C172.513 209.629 172.355 210.426 172.048 211.169C171.74 211.913 171.288 212.588 170.718 213.156C170.149 213.724 169.473 214.175 168.729 214.481C167.985 214.787 167.188 214.943 166.383 214.941Z" fill="#06468A" stroke="#263238" stroke-linecap="round" stroke-linejoin="round"/>
<path d="M150.983 148.519C149.726 148.519 148.509 148.078 147.543 147.273C146.578 146.468 145.925 145.351 145.698 144.114C145.54 143.235 145.41 142.355 145.183 141.489L144.008 135.216C144.008 133.365 144.742 131.59 146.05 130.281C147.358 128.972 149.132 128.236 150.983 128.234C152.834 128.234 154.61 128.969 155.919 130.279C157.229 131.588 157.964 133.364 157.964 135.216L156.789 141.489C156.562 142.355 156.432 143.235 156.274 144.114C156.047 145.352 155.393 146.47 154.426 147.275C153.459 148.08 152.241 148.52 150.983 148.519Z" fill="#263238" stroke="#263238" stroke-linecap="round" stroke-linejoin="round"/>
<path d="M146.632 129.656C145.656 130.064 144.811 130.731 144.187 131.585C143.563 132.439 143.185 133.447 143.093 134.501C142.812 138.129 143.932 142.135 144.117 144.746C144.303 147.358 143.464 149.405 141.231 152.944C138.998 156.483 140.393 161.699 145.794 164.585C151.195 167.471 158.417 165.719 160.795 162.723C165.282 157.06 159.489 149.405 158.733 145.399C157.977 141.393 159.757 136.177 157.62 132.171C155.483 128.165 152.59 126.859 150.164 126.859C147.739 126.859 146.632 129.656 146.632 129.656Z" fill="white" stroke="#263238" stroke-linecap="round" stroke-linejoin="round"/>
<path d="M157.896 141.167C157.896 141.167 156.762 148.533 158.46 154.223C160.157 159.912 157.518 165.176 151.279 165.362C145.039 165.547 143.535 157.432 146.936 157.239C150.337 157.047 150.337 160.641 149.582 160.833" stroke="#263238" stroke-linecap="round" stroke-linejoin="round"/>
<path d="M146.633 129.656C146.633 129.656 149.581 131.718 149.773 134.741" stroke="#263238" stroke-linecap="round" stroke-linejoin="round"/>
<path d="M106.72 170.329H98.4805V179.894H106.72V170.329Z" fill="white" stroke="#263238" stroke-linecap="round" stroke-linejoin="round"/>
<path d="M121.22 142.65H82.9375V171.36H121.22V142.65Z" fill="#263238" stroke="#263238" stroke-linecap="round" stroke-linejoin="round"/>
<path d="M119.213 144.155H84.9375V169.862H119.213V144.155Z" fill="white" stroke="#263238" stroke-linecap="round" stroke-linejoin="round"/>
<path d="M112.568 178.04H76.6914V179.634H112.568V178.04Z" fill="white" stroke="#263238" stroke-linecap="round" stroke-linejoin="round"/>
<path d="M31.222 254.83H29.3323L27.9648 181.331H32.5826L31.222 254.83Z" fill="white" stroke="#263238" stroke-linecap="round" stroke-linejoin="round"/>
<path d="M47.1712 254.83H45.2815L43.9141 181.331H48.5387L47.1712 254.83Z" fill="#263238" stroke="#263238" stroke-linecap="round" stroke-linejoin="round"/>
<path d="M163.281 254.83H161.391L160.023 181.331H164.648L163.281 254.83Z" fill="#263238" stroke="#263238" stroke-linecap="round" stroke-linejoin="round"/>
<path d="M183.773 254.83H181.876L180.516 181.331H185.133L183.773 254.83Z" fill="#263238" stroke="#263238" stroke-linecap="round" stroke-linejoin="round"/>
<path d="M177.937 254.83H176.047L174.68 181.331H179.304L177.937 254.83Z" fill="#263238" stroke="#263238" stroke-linecap="round" stroke-linejoin="round"/>
<path d="M251.234 254.83H249.344L247.977 181.331H252.594L251.234 254.83Z" fill="#263238" stroke="#263238" stroke-linecap="round" stroke-linejoin="round"/>
<path d="M67.0111 254.83H65.1145L63.7539 181.331H68.3717L67.0111 254.83Z" fill="#263238" stroke="#263238" stroke-linecap="round" stroke-linejoin="round"/>
<path d="M81.3314 254.83H79.4417L78.0742 181.331H82.6989L81.3314 254.83Z" fill="#263238" stroke="#263238" stroke-linecap="round" stroke-linejoin="round"/>
<path d="M255.898 254.83H254.001L252.641 181.331H257.258L255.898 254.83Z" fill="#263238" stroke="#263238" stroke-linecap="round" stroke-linejoin="round"/>
<path d="M262.702 254.83H260.813L259.445 181.331H264.07L262.702 254.83Z" fill="#263238" stroke="#263238" stroke-linecap="round" stroke-linejoin="round"/>
<path d="M155.785 254.83H153.896L152.535 181.331H157.153L155.785 254.83Z" fill="white" stroke="#263238" stroke-linecap="round" stroke-linejoin="round"/>
<path d="M269.827 254.83H267.938L266.57 181.331H271.188L269.827 254.83Z" fill="white" stroke="#263238" stroke-linecap="round" stroke-linejoin="round"/>
<path d="M275.182 179.16H26.2969V198.167H275.182V179.16Z" fill="white" stroke="#263238" stroke-linecap="round" stroke-linejoin="round"/>
<path d="M275.182 179.16H26.2969V183.99H275.182V179.16Z" fill="#263238" stroke="#263238" stroke-linecap="round" stroke-linejoin="round"/>
<path d="M276.92 179.16H24.5508V181.798H276.92V179.16Z" fill="white" stroke="#263238" stroke-linecap="round" stroke-linejoin="round"/>
<path d="M52.5857 245.828L46.7448 253.222C46.7448 253.222 45.7759 254.39 47.5213 254.596C49.2667 254.803 58.0349 254.596 58.0349 254.596L57.7532 247.292L52.5857 245.828Z" fill="white" stroke="#263238" stroke-linecap="round" stroke-linejoin="round"/>
<path d="M52.0663 201.479L51.7227 246.921C51.7209 247.207 51.7757 247.491 51.884 247.756C51.9923 248.021 52.152 248.262 52.3538 248.465C52.5556 248.668 52.7956 248.829 53.06 248.939C53.3243 249.049 53.6078 249.106 53.8941 249.106H55.6189C56.1349 249.105 56.6336 248.92 57.0262 248.585C57.4188 248.251 57.6799 247.787 57.7629 247.278L64.2979 205.973L52.0663 201.479Z" fill="#263238" stroke="#263238" stroke-linecap="round" stroke-linejoin="round"/>
<path d="M71.5741 203.787C72.8369 198.474 69.5535 193.143 64.2403 191.88C58.9272 190.617 53.5963 193.9 52.3334 199.214C51.0706 204.527 54.3541 209.858 59.6672 211.121C64.9804 212.383 70.3113 209.1 71.5741 203.787Z" fill="#263238" stroke="#263238" stroke-linecap="round" stroke-linejoin="round"/>
<path d="M92.0391 245.828L97.8731 253.222C97.8731 253.222 98.8489 254.39 97.0966 254.596C95.3443 254.803 86.5898 254.596 86.5898 254.596L86.8578 246.66L92.0391 245.828Z" fill="white" stroke="#263238" stroke-linecap="round" stroke-linejoin="round"/>
<path d="M92.5497 201.479L92.8933 246.921C92.8951 247.207 92.8403 247.491 92.732 247.756C92.6237 248.021 92.464 248.262 92.2622 248.465C92.0604 248.668 91.8204 248.829 91.556 248.939C91.2917 249.049 91.0082 249.106 90.7219 249.106H89.0108C88.4941 249.107 87.9939 248.924 87.6007 248.589C87.2075 248.253 86.9472 247.789 86.8668 247.278L80.3594 205.973L92.5497 201.479Z" fill="#263238" stroke="#263238" stroke-linecap="round" stroke-linejoin="round"/>
<path d="M89.6521 208.469C93.5137 204.607 93.5137 198.346 89.6521 194.484C85.7905 190.623 79.5295 190.623 75.6679 194.484C71.8063 198.346 71.8063 204.607 75.6679 208.469C79.5295 212.33 85.7905 212.33 89.6521 208.469Z" fill="#263238" stroke="#263238" stroke-linecap="round" stroke-linejoin="round"/>
<path d="M68.9688 140.334L69.4498 146.161L75.0364 146.642L75.2769 141.063C75.2769 141.063 70.6661 138.149 68.9688 140.334Z" fill="white" stroke="#263238" stroke-linecap="round" stroke-linejoin="round"/>
<path d="M66.1615 138.809C65.8582 138.844 65.5534 138.757 65.3139 138.568C65.0743 138.378 64.9195 138.102 64.8834 137.799L64.5192 134.72C64.502 134.57 64.5146 134.417 64.5564 134.271C64.5982 134.125 64.6684 133.989 64.7628 133.87C64.8573 133.752 64.9742 133.653 65.1069 133.579C65.2396 133.506 65.3855 133.459 65.5362 133.442C65.8395 133.407 66.1443 133.494 66.3838 133.683C66.6234 133.873 66.7781 134.149 66.8143 134.452L67.1785 137.524C67.1967 137.675 67.1848 137.828 67.1434 137.975C67.1021 138.122 67.0321 138.259 66.9376 138.378C66.843 138.498 66.7258 138.597 66.5926 138.671C66.4594 138.745 66.3129 138.792 66.1615 138.809Z" fill="white" stroke="#263238" stroke-linecap="round" stroke-linejoin="round"/>
<path d="M77.9614 138.417C77.6574 138.391 77.3761 138.245 77.179 138.012C76.982 137.779 76.8853 137.478 76.9101 137.173L77.1643 134.088C77.1764 133.936 77.2185 133.788 77.288 133.653C77.3575 133.517 77.4531 133.397 77.5694 133.299C77.6856 133.2 77.8202 133.126 77.9653 133.08C78.1104 133.034 78.2632 133.017 78.415 133.03C78.5661 133.043 78.7133 133.085 78.848 133.155C78.9827 133.225 79.1023 133.321 79.1999 133.437C79.2976 133.553 79.3714 133.688 79.4171 133.832C79.4628 133.977 79.4795 134.129 79.4663 134.28L79.2121 137.366C79.1991 137.517 79.1564 137.664 79.0865 137.799C79.0166 137.933 78.9209 138.053 78.8047 138.151C78.6886 138.248 78.5543 138.322 78.4096 138.368C78.2649 138.414 78.1126 138.43 77.9614 138.417Z" fill="white" stroke="#263238" stroke-linecap="round" stroke-linejoin="round"/>
<path d="M72.0036 143.537C70.6603 143.536 69.3596 143.065 68.3276 142.205C67.2957 141.345 66.5977 140.151 66.3551 138.829C66.1833 137.888 66.0458 136.947 65.8053 136.026L64.5547 129.312C64.5547 127.335 65.3402 125.438 66.7384 124.04C68.1367 122.642 70.0331 121.856 72.0105 121.856C73.9873 121.858 75.8826 122.644 77.2805 124.042C78.6783 125.44 79.4644 127.335 79.4662 129.312L78.2087 136.026C77.9682 136.947 77.8239 137.888 77.659 138.829C77.4161 140.152 76.7172 141.347 75.6838 142.207C74.6504 143.067 73.3481 143.538 72.0036 143.537Z" fill="#263238" stroke="#263238" stroke-linecap="round" stroke-linejoin="round"/>
<path d="M63.694 146.848C64.8171 145.725 66.3193 145.061 67.9064 144.986C70.8062 144.718 75.6301 144.031 77.19 145.103C78.8697 146.403 80.4756 147.795 82.0002 149.274L61.6875 148.504L63.694 146.848Z" fill="white" stroke="#263238" stroke-linecap="round" stroke-linejoin="round"/>
<path d="M54.1163 149.542L39.6858 176.569C39.6858 176.569 38.7925 179.256 42.1527 180.596C45.5129 181.936 47.5263 179.908 47.5263 179.908L55.9991 167.017L54.1163 149.542Z" fill="#263238" stroke="#263238" stroke-linecap="round" stroke-linejoin="round"/>
<path d="M88.0469 148.67C88.0469 148.67 106.69 174.672 105.631 177.6C104.573 180.527 102.972 181.317 100.052 181.035C97.1312 180.754 88.6035 165.375 88.6035 165.375L88.0469 148.67Z" fill="#263238" stroke="#263238" stroke-linecap="round" stroke-linejoin="round"/>
<path d="M86.4415 148.443C86.4415 148.443 74.794 147.323 68.3003 147.323C61.8066 147.323 54.1172 149.542 54.1172 149.542L57.9928 190.958H85.7681L88.0495 148.67L86.4415 148.443Z" fill="#263238" stroke="#263238" stroke-linecap="round" stroke-linejoin="round"/>
<path d="M57.9922 190.958L55.9307 199.376C55.5641 200.847 55.7474 202.401 56.4461 203.746L60.3904 211.367H84.4756L88.2551 204.282C88.7505 203.358 89.0391 202.338 89.1008 201.291C89.1625 200.245 88.9959 199.197 88.6124 198.221L85.7675 190.992L57.9922 190.958Z" fill="#263238" stroke="#263238" stroke-linecap="round" stroke-linejoin="round"/>
<path d="M75.5447 206.027H70.5078V225.247H75.5447V206.027Z" fill="#263238" stroke="#263238" stroke-linecap="round" stroke-linejoin="round"/>
<path d="M76.8266 222.23H69.2266V246.542H76.8266V222.23Z" fill="#263238" stroke="#263238" stroke-linecap="round" stroke-linejoin="round"/>
<path d="M76.6715 245.897L73.1464 244.955V244.784L72.8303 244.866L72.5073 244.784V244.955L68.989 245.897L45 250.377V252.136H72.5073H73.1464H100.661V250.377L76.6715 245.897Z" fill="#263238" stroke="#263238" stroke-linecap="round" stroke-linejoin="round"/>
<path d="M47.079 254.933C48.005 254.933 48.7557 254.183 48.7557 253.257C48.7557 252.331 48.005 251.58 47.079 251.58C46.153 251.58 45.4023 252.331 45.4023 253.257C45.4023 254.183 46.153 254.933 47.079 254.933Z" fill="#263238" stroke="#263238" stroke-linecap="round" stroke-linejoin="round"/>
<path d="M74.5057 253.257C74.5057 253.588 74.4074 253.913 74.2231 254.188C74.0389 254.464 73.7771 254.679 73.4707 254.806C73.1643 254.933 72.8272 254.966 72.5019 254.901C72.1767 254.837 71.8779 254.677 71.6434 254.442C71.409 254.208 71.2493 253.909 71.1846 253.584C71.1199 253.259 71.1531 252.922 71.28 252.615C71.4069 252.309 71.6218 252.047 71.8975 251.863C72.1732 251.678 72.4974 251.58 72.829 251.58C73.2737 251.58 73.7002 251.757 74.0146 252.071C74.3291 252.386 74.5057 252.812 74.5057 253.257Z" fill="#263238" stroke="#263238" stroke-linecap="round" stroke-linejoin="round"/>
<path d="M100.418 253.257C100.419 253.59 100.322 253.916 100.138 254.194C99.9533 254.472 99.6909 254.689 99.3834 254.817C99.0759 254.946 98.7371 254.98 98.4101 254.916C98.0831 254.852 97.7825 254.692 97.5463 254.457C97.3102 254.221 97.1492 253.921 97.0836 253.595C97.0181 253.268 97.0511 252.929 97.1783 252.621C97.3055 252.313 97.5213 252.05 97.7983 251.864C98.0753 251.679 98.4011 251.58 98.7343 251.58C99.1797 251.58 99.6068 251.757 99.9224 252.071C100.238 252.385 100.416 252.811 100.418 253.257Z" fill="#263238" stroke="#263238" stroke-linecap="round" stroke-linejoin="round"/>
<path d="M48.7491 187.598H53.731V209.195H53.5524C52.2766 209.195 51.0531 208.689 50.1511 207.786C49.249 206.884 48.7422 205.661 48.7422 204.385V187.598H48.7491Z" fill="#06468A" stroke="#263238" stroke-linecap="round" stroke-linejoin="round"/>
<path d="M53.7087 183.09H45.875V187.124H53.7087V183.09Z" fill="#06468A" stroke="#263238" stroke-linecap="round" stroke-linejoin="round"/>
<path d="M92.5234 209.195C93.1808 209.201 93.8328 209.076 94.4416 208.828C95.0504 208.58 95.604 208.214 96.0705 207.75C96.5369 207.287 96.9069 206.736 97.1591 206.129C97.4113 205.522 97.5407 204.871 97.5398 204.213V187.598H92.5234V209.195Z" fill="#06468A" stroke="#263238" stroke-linecap="round" stroke-linejoin="round"/>
<path d="M92.5218 187.13H100.355V183.097H92.5218V187.13Z" fill="#06468A" stroke="#263238" stroke-linecap="round" stroke-linejoin="round"/>
<path d="M88.4709 212.109H57.5965C56.7378 212.11 55.8872 211.942 55.0936 211.614C54.2999 211.286 53.5787 210.804 52.9712 210.197C52.3636 209.591 51.8816 208.87 51.5528 208.076C51.2239 207.283 51.0547 206.433 51.0547 205.574L54.7173 159.41C54.7173 157.965 55.2914 156.579 56.3133 155.557C57.3353 154.535 58.7213 153.961 60.1665 153.961H85.8941C86.6108 153.959 87.3209 154.099 87.9836 154.372C88.6463 154.645 89.2487 155.046 89.7561 155.552C90.2636 156.058 90.6662 156.66 90.9409 157.322C91.2156 157.984 91.357 158.693 91.357 159.41L95.0196 205.574C95.0196 206.433 94.8502 207.284 94.5209 208.078C94.1916 208.872 93.709 209.593 93.1007 210.2C92.4925 210.807 91.7704 211.288 90.976 211.616C90.1815 211.943 89.3303 212.111 88.4709 212.109Z" fill="#06468A" stroke="#263238" stroke-linecap="round" stroke-linejoin="round"/>
<path d="M88.4709 214.535H57.5965C56.7378 214.536 55.8872 214.367 55.0936 214.039C54.2999 213.711 53.5787 213.23 52.9712 212.623C52.3636 212.016 51.8816 211.296 51.5528 210.502C51.2239 209.709 51.0547 208.859 51.0547 208L54.7173 161.836C54.7191 160.392 55.294 159.008 56.3158 157.987C57.3375 156.967 58.7225 156.394 60.1665 156.394H85.8941C87.3381 156.394 88.7231 156.967 89.7448 157.987C90.7666 159.008 91.3415 160.392 91.3433 161.836L95.0059 208C95.0059 209.733 94.3174 211.395 93.0918 212.621C91.8663 213.846 90.2041 214.535 88.4709 214.535Z" fill="#06468A" stroke="#263238" stroke-linecap="round" stroke-linejoin="round"/>
<path d="M1.25781 254.899H281.45" stroke="#263238" stroke-linecap="round" stroke-linejoin="round"/>
</svg>
