<svg width="68" height="78" viewBox="0 0 68 78" fill="none" xmlns="http://www.w3.org/2000/svg">
<path d="M67.3333 12.1332L34 0.466553L0.666626 12.1332V38.9999C0.666626 52.7566 9.11329 62.3732 16.9866 68.3432C21.7402 71.9113 26.954 74.821 32.4866 76.9932C32.8644 77.1354 33.2444 77.271 33.6266 77.3999L34 77.5332L34.38 77.3999C35.1088 77.1467 35.8312 76.8755 36.5466 76.5865C41.6991 74.4637 46.5604 71.6937 51.0133 68.3432C58.89 62.3732 67.3333 52.7566 67.3333 38.9999V12.1332ZM30.67 50.3832L16.5333 36.2399L21.2466 31.5232L30.6733 40.9532L49.53 22.0966L54.2466 26.8099L30.67 50.3832Z" fill="#06468A"/>
</svg>
