<svg width="15" height="22" viewBox="0 0 15 22" fill="none" xmlns="http://www.w3.org/2000/svg">
<path fill-rule="evenodd" clip-rule="evenodd" d="M3.75 0.500002C3.63224 0.499994 3.51613 0.527718 3.41107 0.580927C3.30602 0.634137 3.21497 0.711337 3.1453 0.806277C3.07563 0.901218 3.02929 1.01123 3.01004 1.12741C2.99079 1.24359 2.99917 1.36266 3.0345 1.475L3.1995 2H0.75C0.551088 2 0.360322 2.07902 0.21967 2.21967C0.0790178 2.36032 0 2.55109 0 2.75V20.75C0 20.9489 0.0790178 21.1397 0.21967 21.2803C0.360322 21.421 0.551088 21.5 0.75 21.5H14.25C14.4489 21.5 14.6397 21.421 14.7803 21.2803C14.921 21.1397 15 20.9489 15 20.75V2.75C15 2.55109 14.921 2.36032 14.7803 2.21967C14.6397 2.07902 14.4489 2 14.25 2H11.802L11.967 1.475C12.0024 1.36254 12.0107 1.24333 11.9914 1.12704C11.9721 1.01074 11.9256 0.900645 11.8558 0.805672C11.7859 0.710699 11.6947 0.633527 11.5894 0.580418C11.4842 0.527309 11.3679 0.499759 11.25 0.500002H3.75ZM4.77 2H10.23L9.7605 3.5H5.2395L4.77 2ZM12 9.5H3V8H12V9.5ZM12 13.25H3V11.75H12V13.25ZM3 17H9V15.5H3V17Z" fill="#052659"/>
</svg>
