<svg width="200" height="40" viewBox="0 0 200 40" fill="none" xmlns="http://www.w3.org/2000/svg">
<path d="M0 31.7583V8.22266H9.2978C11.0847 8.22266 12.6091 8.56207 13.8656 9.24091C15.1247 9.91975 16.0851 10.8583 16.7494 12.0565C17.4137 13.2548 17.7459 14.6356 17.7459 16.199C17.7459 17.7624 17.4086 19.1381 16.734 20.3312C16.0594 21.5217 15.0835 22.4525 13.8064 23.1237C12.5292 23.7948 10.9843 24.1291 9.1742 24.1291H4.98492V31.7608H0.00257442L0 31.7583ZM4.98234 20.1383H8.3657C9.79217 20.1383 10.8582 19.7732 11.5585 19.0403C12.2615 18.3101 12.6116 17.3613 12.6116 16.1964C12.6116 15.0316 12.2615 14.0802 11.5585 13.3628C10.8556 12.6454 9.78444 12.288 8.34253 12.288H4.98234V20.1357V20.1383Z" fill="white"/>
<path d="M51.5471 8.22266V31.7583H47.2419L36.9888 16.9447H36.8163V31.7583H31.834V8.22266H36.2061L46.3793 23.0234H46.5853V8.22266H51.5445H51.5471Z" fill="white"/>
<path d="M54.7578 12.3246V8.2207H74.113V12.3246H66.8982V31.7589H61.9726V12.3246H54.7578Z" fill="white"/>
<path d="M120.63 15.1345C120.537 14.2088 120.14 13.4863 119.437 12.9746C118.734 12.4603 117.79 12.2057 116.6 12.2057C115.41 12.2057 114.445 12.4552 113.791 12.954C113.139 13.4528 112.812 14.0802 112.812 14.8388C112.797 15.6822 113.16 16.3199 113.899 16.7519C114.64 17.1839 115.518 17.5207 116.541 17.7573L118.657 18.2638C120.022 18.5698 121.237 19.0147 122.298 19.5958C123.361 20.1769 124.198 20.9278 124.806 21.8432C125.416 22.7586 125.72 23.872 125.72 25.1808C125.712 27.333 124.904 29.0481 123.297 30.3235C121.69 31.5989 119.448 32.2366 116.572 32.2366C113.695 32.2366 111.427 31.586 109.725 30.2824C108.021 28.9813 107.14 27.0579 107.078 24.5122H111.901C111.986 25.6925 112.452 26.5796 113.299 27.1736C114.146 27.7676 115.22 28.0633 116.515 28.0633C117.81 28.0633 118.791 27.7959 119.548 27.2584C120.303 26.7236 120.686 26.0242 120.694 25.1679C120.686 24.3708 120.336 23.7588 119.646 23.3294C118.956 22.9 117.97 22.5323 116.687 22.2263L114.12 21.5835C112.133 21.1078 110.564 20.3544 109.414 19.3207C108.263 18.287 107.691 16.9036 107.699 15.1731C107.691 13.7485 108.072 12.5014 108.844 11.4318C109.614 10.3621 110.675 9.53152 112.027 8.93754C113.376 8.34356 114.911 8.04785 116.631 8.04785C118.351 8.04785 119.909 8.34613 121.217 8.94525C122.525 9.54181 123.544 10.3749 124.273 11.4395C125.002 12.504 125.378 13.7383 125.401 15.1396H120.624L120.63 15.1345Z" fill="white"/>
<path d="M154.218 31.9028L147.475 8.36719H152.918L156.819 24.721H157.014L161.317 8.36719H165.978L170.27 24.7544H170.476L174.377 8.36719H179.82L173.076 31.9028H168.22L163.732 16.5158H163.549L159.072 31.9028H154.216H154.218Z" fill="white"/>
<path d="M182.526 31.9028H177.186L185.322 8.36719H191.744L199.867 31.9028H194.527L192.779 26.5364H184.274L182.526 31.9028ZM185.541 22.6511H191.525L188.626 13.7439H188.443L185.544 22.6511H185.541Z" fill="white"/>
<path d="M132.31 9.10036V30.873L145 31.9033V32H129V8H145V8.07013L132.31 9.10036Z" fill="white"/>
<path d="M136.5 21C137.328 21 138 20.3284 138 19.5C138 18.6716 137.328 18 136.5 18C135.672 18 135 18.6716 135 19.5C135 20.3284 135.672 21 136.5 21Z" fill="white"/>
<path d="M26.5356 8V32H21.4614V8H26.5356Z" fill="white"/>
<path fill-rule="evenodd" clip-rule="evenodd" d="M77.3242 14V23.9416C77.3242 25.721 77.7413 27.2278 78.573 28.4646C79.4047 29.7014 80.5557 30.6425 82.0311 31.2854C83.5064 31.9282 85.193 32.2496 87.0958 32.2496C88.9986 32.2496 90.6826 31.9282 92.1528 31.2854C93.623 30.6425 94.774 29.7014 95.6108 28.4646C96.4477 27.2278 96.8648 25.7184 96.8648 23.9416V14H91.9185V23.7693C91.9185 25.0267 91.4627 26.0141 90.5538 26.7341C89.6449 27.4541 88.4708 27.8141 87.0958 27.8141C85.7208 27.8141 84.5802 27.4541 83.6712 26.7341C82.7597 26.0141 82.3066 25.0267 82.3066 23.7693V14H77.3242Z" fill="white"/>
<path fill-rule="evenodd" clip-rule="evenodd" d="M94.9387 11H93.157C92.5631 7.97965 90.032 5.70996 87.0017 5.70996C83.9714 5.70996 81.4385 7.97965 80.8443 11H79.0625C79.5548 7.05351 82.9224 4 87.0017 4C91.081 4 94.4467 7.05351 94.9387 11Z" fill="white"/>
<path d="M132 10L145 8H132V10Z" fill="white"/>
<path d="M132 30L145 32H132V30Z" fill="white"/>
</svg>
