<svg width="18" height="19" viewBox="0 0 18 19" fill="none" xmlns="http://www.w3.org/2000/svg">
<path d="M8.99996 9.75C12.942 9.75 16.987 12.313 17.249 17.462C17.259 17.6605 17.1899 17.8548 17.0568 18.0024C16.9237 18.15 16.7374 18.2387 16.539 18.249C14.459 18.355 4.82596 18.42 1.46196 18.249C1.26332 18.2389 1.07682 18.1503 0.943481 18.0027C0.810144 17.8552 0.740894 17.6606 0.750962 17.462C1.01296 12.314 5.05796 9.75 8.99996 9.75ZM8.99996 0.75C8.0054 0.75 7.05157 1.14509 6.34831 1.84835C5.64505 2.55161 5.24996 3.50544 5.24996 4.5C5.24996 5.49456 5.64505 6.44839 6.34831 7.15165C7.05157 7.85491 8.0054 8.25 8.99996 8.25C9.99452 8.25 10.9484 7.85491 11.6516 7.15165C12.3549 6.44839 12.75 5.49456 12.75 4.5C12.75 3.50544 12.3549 2.55161 11.6516 1.84835C10.9484 1.14509 9.99452 0.75 8.99996 0.75Z" fill="#052659"/>
</svg>
