<svg width="20" height="20" viewBox="0 0 20 20" fill="none" xmlns="http://www.w3.org/2000/svg">
<path d="M10.8141 10.1971L3.2821 11.4531C3.19551 11.4675 3.11425 11.5045 3.04649 11.5604C2.97873 11.6162 2.92686 11.6889 2.8961 11.7711L0.299103 18.7281C0.0511033 19.3681 0.720103 19.9781 1.3341 19.6711L19.3341 10.6711C19.4588 10.6088 19.5636 10.5131 19.6369 10.3946C19.7102 10.276 19.7491 10.1394 19.7491 10.0001C19.7491 9.86073 19.7102 9.72414 19.6369 9.60561C19.5636 9.48709 19.4588 9.39134 19.3341 9.32908L1.3341 0.329084C0.720103 0.0220838 0.0511033 0.633084 0.299103 1.27208L2.8971 8.22908C2.92772 8.3115 2.97952 8.38438 3.04729 8.44039C3.11506 8.4964 3.1964 8.53354 3.2831 8.54808L10.8151 9.80308C10.8615 9.8112 10.9035 9.83541 10.9337 9.87144C10.964 9.90747 10.9806 9.95302 10.9806 10.0001C10.9806 10.0471 10.964 10.0927 10.9337 10.1287C10.9035 10.1648 10.8615 10.189 10.8151 10.1971H10.8141Z" fill="#06468A"/>
</svg>
