<svg width="18" height="17" viewBox="0 0 18 17" fill="none" xmlns="http://www.w3.org/2000/svg">
<path d="M10.875 2.25004C10.3777 2.25004 9.90081 2.44759 9.54917 2.79922C9.19754 3.15085 9 3.62776 9 4.12504C9 4.62232 9.19754 5.09924 9.54917 5.45087C9.90081 5.8025 10.3777 6.00004 10.875 6.00004C11.3723 6.00004 11.8492 5.8025 12.2008 5.45087C12.5525 5.09924 12.75 4.62232 12.75 4.12504C12.75 3.62776 12.5525 3.15085 12.2008 2.79922C11.8492 2.44759 11.3723 2.25004 10.875 2.25004ZM7.5 4.12504C7.49989 3.55058 7.64641 2.9856 7.92569 2.48359C8.20497 1.98159 8.60777 1.55918 9.09594 1.25636C9.58411 0.953548 10.1415 0.78035 10.7153 0.75317C11.2891 0.72599 11.8604 0.845727 12.375 1.10104C12.8896 0.846031 13.4607 0.726536 14.0343 0.753868C14.6079 0.781199 15.1651 0.954453 15.6531 1.25723C16.1411 1.56001 16.5437 1.9823 16.8229 2.48414C17.1021 2.98598 17.2487 3.55076 17.2487 4.12504C17.2487 4.69933 17.1021 5.26411 16.8229 5.76595C16.5437 6.26778 16.1411 6.69007 15.6531 6.99285C15.1651 7.29563 14.6079 7.46889 14.0343 7.49622C13.4607 7.52355 12.8896 7.40406 12.375 7.14904C11.8604 7.40436 11.2891 7.5241 10.7153 7.49692C10.1415 7.46974 9.58411 7.29654 9.09594 6.99372C8.60777 6.69091 8.20497 6.2685 7.92569 5.76649C7.64641 5.26449 7.49989 4.69951 7.5 4.12504ZM13.6875 5.99104C13.749 5.99704 13.8115 6.00004 13.875 6.00004C14.1288 5.99949 14.3798 5.94743 14.6129 5.847C14.846 5.74658 15.0562 5.59988 15.2309 5.41579C15.4057 5.23171 15.5412 5.01408 15.6293 4.77608C15.7174 4.53808 15.7563 4.28466 15.7436 4.03119C15.7309 3.77772 15.6669 3.52946 15.5554 3.30147C15.4439 3.07347 15.2873 2.87048 15.0951 2.70478C14.9028 2.53909 14.679 2.41415 14.437 2.33754C14.1951 2.26092 13.9401 2.23421 13.6875 2.25904C14.0544 2.81219 14.2501 3.46126 14.25 4.12504C14.2501 4.78882 14.0544 5.43789 13.6875 5.99104ZM6.32625 9.93754C6.20311 9.93722 6.0811 9.96117 5.96722 10.008C5.85333 10.0549 5.74978 10.1237 5.6625 10.2105L4.125 11.748V14.625H8.34525L12.6975 13.5375L15.3465 12.4065C15.4367 12.3578 15.5058 12.2774 15.5404 12.1809C15.575 12.0843 15.5728 11.9784 15.5341 11.8834C15.4955 11.7884 15.4231 11.7111 15.3309 11.6661C15.2387 11.6212 15.1331 11.6119 15.0345 11.64L15.0195 11.6438L10.2105 12.75H7.5V11.25H9.84375C10.0178 11.25 10.1847 11.1809 10.3078 11.0578C10.4309 10.9348 10.5 10.7678 10.5 10.5938C10.5 10.4197 10.4309 10.2528 10.3078 10.1298C10.1847 10.0067 10.0178 9.93754 9.84375 9.93754H6.32625ZM11.9903 10.8015L14.6542 10.1888C14.938 10.1142 15.235 10.1056 15.5226 10.1637C15.8102 10.2218 16.0806 10.345 16.3131 10.5238C16.5457 10.7027 16.7341 10.9325 16.864 11.1955C16.9939 11.4586 17.0618 11.7479 17.0625 12.0413C17.0622 12.3974 16.9629 12.7465 16.7756 13.0494C16.5883 13.3523 16.3205 13.5971 16.002 13.7565L15.9818 13.767L13.1768 14.9633L8.52975 16.125H0V10.6875H3.0645L4.6035 9.14854C4.83025 8.92256 5.0993 8.74346 5.39528 8.62146C5.69126 8.49947 6.00837 8.43697 6.3285 8.43754H9.84375C10.1445 8.4375 10.4418 8.50036 10.7168 8.62208C10.9918 8.74379 11.2383 8.92168 11.4404 9.1443C11.6425 9.36693 11.7959 9.62937 11.8906 9.91478C11.9853 10.2002 12.0192 10.5022 11.9903 10.8015ZM2.625 12.1875H1.5V14.625H2.625V12.1875Z" fill="#2C3941"/>
</svg>
