<svg width="10" height="11" viewBox="0 0 10 11" fill="none" xmlns="http://www.w3.org/2000/svg">
<path d="M4.99975 8.57049L2.57605 9.96025C2.46898 10.0251 2.35705 10.0529 2.24024 10.0436C2.12344 10.0344 2.02123 9.99731 1.93363 9.93246C1.84602 9.8676 1.77789 9.78663 1.72922 9.68953C1.68055 9.59243 1.67082 9.48347 1.70002 9.36266L2.34244 6.736L0.196159 4.971C0.0988221 4.88762 0.0380837 4.79256 0.013944 4.68583C-0.0101956 4.57909 -0.00299269 4.47495 0.0355528 4.37341C0.0740984 4.27186 0.132501 4.18848 0.21076 4.12325C0.289019 4.05802 0.39609 4.01633 0.531973 3.99817L3.36449 3.76191L4.45953 1.28813C4.5082 1.17695 4.58373 1.09357 4.68613 1.03798C4.78853 0.982385 4.89307 0.95459 4.99975 0.95459C5.10643 0.95459 5.21097 0.982385 5.31337 1.03798C5.41577 1.09357 5.4913 1.17695 5.53997 1.28813L6.63502 3.76191L9.46753 3.99817C9.6038 4.0167 9.71087 4.05839 9.78874 4.12325C9.86661 4.1881 9.92501 4.27149 9.96395 4.37341C10.0029 4.47532 10.0103 4.57965 9.98614 4.68638C9.962 4.79312 9.90107 4.88799 9.80334 4.971L7.65706 6.736L8.29948 9.36266C8.32868 9.4831 8.31895 9.59206 8.27028 9.68953C8.22161 9.787 8.15348 9.86797 8.06587 9.93246C7.97827 9.99694 7.87607 10.034 7.75926 10.0436C7.64246 10.0533 7.53052 10.0255 7.42345 9.96025L4.99975 8.57049Z" fill="#FDCC0D"/>
</svg>
