<svg width="30" height="29" viewBox="0 0 30 29" fill="none" xmlns="http://www.w3.org/2000/svg">
<path d="M4.49236 1.58514L4.49244 1.58502C4.98576 0.761901 5.88983 0.25 6.849 0.25H23.1506C23.625 0.251637 24.0911 0.37534 24.5039 0.609212C24.9167 0.843073 25.2624 1.17922 25.5077 1.58532C25.5078 1.58546 25.5079 1.58559 25.508 1.58573L29.5711 8.35614L29.5713 8.35633C29.688 8.55055 29.7498 8.77287 29.75 8.9995C29.7441 10.3863 29.2333 11.7236 28.313 12.7611L28.25 12.8321V12.927V25.5C28.25 27.0164 27.0164 28.25 25.5 28.25H4.5C2.98357 28.25 1.75 27.0164 1.75 25.5V12.927V12.8321L1.68703 12.7611C0.766728 11.7236 0.255878 10.3864 0.25 8.99954C0.250169 8.7729 0.311954 8.55057 0.42875 8.35633L0.42886 8.35614L4.49236 1.58514ZM27.224 9.40788L27.2349 9.32207L27.1904 9.2479L23.3654 2.8714L23.2926 2.75H23.151H19.83H19.525L19.5849 3.04904L20.6773 8.50989L20.6429 8.51678L20.6973 8.76542C20.7049 8.80006 20.7177 8.84683 20.727 8.88063C20.731 8.89532 20.7344 8.90756 20.7363 8.91529C20.7463 8.95444 20.75 8.97928 20.75 9C20.75 10.7926 22.2074 12.25 24 12.25C24.7913 12.2499 25.5553 11.9612 26.1489 11.4379C26.7424 10.9147 27.1247 10.1929 27.224 9.40788ZM13.2285 2.75H13.0235L12.9833 2.95103L11.7653 9.04853L11.7597 9.07682L11.7606 9.10566C11.8175 10.8469 13.2435 12.25 15 12.25C16.7565 12.25 18.1825 10.8469 18.2394 9.10566L18.2403 9.07679L18.2346 9.04847L17.0151 2.95097L16.975 2.75H16.77H13.2285ZM6.849 2.75H6.70744L6.63461 2.8714L2.80961 9.2479L2.76512 9.32207L2.77598 9.40788C2.87528 10.1929 3.25756 10.9147 3.85111 11.4379C4.44466 11.9612 5.20872 12.2499 5.99998 12.25H6C7.79257 12.25 9.25 10.7926 9.25 9C9.25 8.97939 9.25372 8.95465 9.26364 8.91619C9.26526 8.90991 9.26888 8.897 9.27339 8.88092C9.28296 8.84676 9.29654 8.79834 9.3034 8.76904L9.36235 8.51753L9.32412 8.50988L10.4152 3.04898L10.4749 2.75H10.17H6.849ZM11.75 25.5V25.75H12H18H18.25V25.5V21V20.75H18H12H11.75V21V25.5ZM20.75 25.5V25.75H21H25.5H25.75V25.5V14.787V14.4641L25.4374 14.545C24.9681 14.6663 24.4939 14.75 24.0002 14.75C23.1841 14.7495 22.3774 14.5753 21.6339 14.239C20.8903 13.9026 20.2269 13.4119 19.6877 12.7993L19.5001 12.5862L19.3124 12.7992C18.2583 13.9957 16.7146 14.75 15 14.75C13.2854 14.75 11.7417 13.9957 10.6876 12.7992L10.4999 12.5862L10.3123 12.7993C9.77312 13.4119 9.10968 13.9026 8.36612 14.239C7.62257 14.5753 6.81593 14.7495 5.99985 14.75C5.50615 14.75 5.03189 14.6663 4.56258 14.545L4.25 14.4641V14.787V25.5V25.75H4.5H9H9.25V25.5V21C9.25 19.4836 10.4836 18.25 12 18.25H18C19.5164 18.25 20.75 19.4836 20.75 21V25.5Z" fill="#2C3941" stroke="#FAFAFA" stroke-width="0.5"/>
</svg>
