<svg width="15" height="11" viewBox="0 0 15 11" fill="none" xmlns="http://www.w3.org/2000/svg">
<path d="M11.3684 10.026C11.8926 10.026 12.3158 9.60284 12.3158 9.07863C12.3158 8.55442 11.8926 8.13126 11.3684 8.13126C10.8442 8.13126 10.4211 8.55442 10.4211 9.07863C10.4211 9.60284 10.8442 10.026 11.3684 10.026ZM12.3158 4.34179H10.7369V5.92073H13.5537L12.3158 4.34179ZM3.78949 10.026C4.3137 10.026 4.73686 9.60284 4.73686 9.07863C4.73686 8.55442 4.3137 8.13126 3.78949 8.13126C3.26528 8.13126 2.84212 8.55442 2.84212 9.07863C2.84212 9.60284 3.26528 10.026 3.78949 10.026ZM12.6316 3.39442L14.5263 5.92073V9.07863H13.2632C13.2632 10.1271 12.4169 10.9734 11.3684 10.9734C10.32 10.9734 9.4737 10.1271 9.4737 9.07863H5.68422C5.68422 10.1271 4.83791 10.9734 3.78949 10.9734C2.74107 10.9734 1.89475 10.1271 1.89475 9.07863H0.631592V2.13126C0.631592 1.43021 1.1937 0.868103 1.89475 0.868103H10.7369V3.39442H12.6316ZM1.89475 2.13126V7.81547H2.37475C2.72212 7.43021 3.22738 7.18389 3.78949 7.18389C4.35159 7.18389 4.85686 7.43021 5.20422 7.81547H9.4737V2.13126H1.89475Z" fill="#2C3941"/>
</svg>
