<svg width="15" height="15" viewBox="0 0 15 15" fill="none" xmlns="http://www.w3.org/2000/svg">
<path d="M2.29775 14.4249C1.80337 14.4249 1.3803 14.249 1.02854 13.8973C0.676779 13.5455 0.500599 13.1222 0.5 12.6272V10.8294C0.5 10.5747 0.586292 10.3614 0.758876 10.1894C0.93146 10.0174 1.14479 9.93115 1.39888 9.93055C1.65296 9.92995 1.86659 10.0162 2.03977 10.1894C2.21296 10.3626 2.29895 10.5759 2.29775 10.8294V12.6272H13.0843V10.8294C13.0843 10.5747 13.1705 10.3614 13.3431 10.1894C13.5157 10.0174 13.729 9.93115 13.9831 9.93055C14.2372 9.92995 14.4508 10.0162 14.624 10.1894C14.7972 10.3626 14.8832 10.5759 14.882 10.8294V12.6272C14.882 13.1216 14.7061 13.5449 14.3544 13.8973C14.0026 14.2496 13.5792 14.4255 13.0843 14.4249H2.29775ZM6.79213 3.50359L5.10674 5.18898C4.92696 5.36876 4.71363 5.45505 4.46674 5.44786C4.21985 5.44066 4.00621 5.34688 3.82584 5.16651C3.66105 4.98673 3.57475 4.777 3.56696 4.5373C3.55917 4.2976 3.64546 4.08786 3.82584 3.90808L7.06179 0.672131C7.15168 0.582243 7.24906 0.518723 7.35393 0.481569C7.45879 0.444416 7.57115 0.42554 7.691 0.424941C7.81085 0.424341 7.92321 0.443217 8.02808 0.481569C8.13295 0.519922 8.23033 0.583442 8.32022 0.672131L11.5562 3.90808C11.7359 4.08786 11.8222 4.2976 11.815 4.5373C11.8079 4.777 11.7216 4.98673 11.5562 5.16651C11.3764 5.34628 11.1631 5.44007 10.9162 5.44786C10.6693 5.45565 10.4556 5.36935 10.2753 5.18898L8.58988 3.50359V9.93055C8.58988 10.1852 8.50359 10.3989 8.331 10.5714C8.15842 10.744 7.94509 10.83 7.691 10.8294C7.43692 10.8288 7.22359 10.7425 7.051 10.5705C6.87842 10.3986 6.79213 10.1852 6.79213 9.93055V3.50359Z" fill="#052659"/>
</svg>
