<svg width="24" height="25" viewBox="0 0 24 25" fill="none" xmlns="http://www.w3.org/2000/svg">
<path d="M20.2249 4.22831C19.1552 3.1481 17.8811 2.29161 16.477 1.70874C15.0729 1.12587 13.5669 0.828278 12.0466 0.833315C5.6766 0.833315 0.484935 6.02498 0.484935 12.395C0.484935 14.4366 1.0216 16.42 2.02494 18.17L0.391602 24.1666L6.5166 22.5566C8.20827 23.4783 10.1099 23.9683 12.0466 23.9683C18.4166 23.9683 23.6083 18.7766 23.6083 12.4066C23.6083 9.31498 22.4066 6.40998 20.2249 4.22831ZM12.0466 22.0083C10.3199 22.0083 8.62827 21.5416 7.1466 20.6666L6.7966 20.4566L3.1566 21.4133L4.12494 17.8666L3.8916 17.505C2.93207 15.9732 2.42268 14.2025 2.4216 12.395C2.4216 7.09832 6.73827 2.78165 12.0349 2.78165C14.6016 2.78165 17.0166 3.78498 18.8249 5.60498C19.7205 6.49616 20.4302 7.55628 20.9128 8.72386C21.3955 9.89145 21.6415 11.1432 21.6366 12.4066C21.6599 17.7033 17.3433 22.0083 12.0466 22.0083ZM17.3199 14.8216C17.0283 14.6816 15.6049 13.9816 15.3483 13.8766C15.0799 13.7833 14.8933 13.7366 14.6949 14.0166C14.4966 14.3083 13.9483 14.9616 13.7849 15.1483C13.6216 15.3466 13.4466 15.37 13.1549 15.2183C12.8633 15.0783 11.9299 14.7633 10.8333 13.7833C9.96994 13.0133 9.39827 12.0683 9.22327 11.7766C9.05994 11.485 9.19993 11.3333 9.3516 11.1816C9.47993 11.0533 9.64327 10.8433 9.78327 10.68C9.92327 10.5166 9.9816 10.3883 10.0749 10.2016C10.1683 10.0033 10.1216 9.83998 10.0516 9.69998C9.9816 9.55998 9.39827 8.13665 9.16494 7.55331C8.9316 6.99331 8.6866 7.06331 8.5116 7.05165H7.9516C7.75327 7.05165 7.44993 7.12165 7.1816 7.41331C6.92493 7.70498 6.17827 8.40498 6.17827 9.82831C6.17827 11.2516 7.2166 12.6283 7.3566 12.815C7.4966 13.0133 9.39827 15.93 12.2916 17.1783C12.9799 17.4816 13.5166 17.6566 13.9366 17.785C14.6249 18.0066 15.2549 17.9716 15.7566 17.9016C16.3166 17.82 17.4716 17.2016 17.7049 16.525C17.9499 15.8483 17.9499 15.2766 17.8683 15.1483C17.7866 15.02 17.6116 14.9616 17.3199 14.8216Z" fill="white"/>
</svg>
