<svg width="49" height="39" viewBox="0 0 49 39" fill="none" xmlns="http://www.w3.org/2000/svg">
<path d="M43.7 19.5C43.7 20.773 44.2057 21.9939 45.1059 22.8941C46.0061 23.7943 47.227 24.3 48.5 24.3V33.9C48.5 35.173 47.9943 36.3939 47.0941 37.2941C46.1939 38.1943 44.973 38.7 43.7 38.7H5.3C4.02696 38.7 2.80606 38.1943 1.90589 37.2941C1.00571 36.3939 0.5 35.173 0.5 33.9V24.3C1.77304 24.3 2.99394 23.7943 3.89411 22.8941C4.79429 21.9939 5.3 20.773 5.3 19.5C5.3 18.2269 4.79429 17.0061 3.89411 16.1059C2.99394 15.2057 1.77304 14.7 0.5 14.7V5.09999C0.5 3.82695 1.00571 2.60605 1.90589 1.70588C2.80606 0.8057 4.02696 0.299988 5.3 0.299988H43.7C44.973 0.299988 46.1939 0.8057 47.0941 1.70588C47.9943 2.60605 48.5 3.82695 48.5 5.09999V14.7C47.227 14.7 46.0061 15.2057 45.1059 16.1059C44.2057 17.0061 43.7 18.2269 43.7 19.5ZM35.3 29.7C35.3 26.1 28.1 24.3 24.5 24.3C20.9 24.3 13.7 26.1 13.7 29.7V31.5H35.3V29.7ZM24.5 20.1C25.9322 20.1 27.3057 19.5311 28.3184 18.5184C29.3311 17.5057 29.9 16.1322 29.9 14.7C29.9 13.2678 29.3311 11.8943 28.3184 10.8816C27.3057 9.86892 25.9322 9.29999 24.5 9.29999C23.0678 9.29999 21.6943 9.86892 20.6816 10.8816C19.6689 11.8943 19.1 13.2678 19.1 14.7C19.1 16.1322 19.6689 17.5057 20.6816 18.5184C21.6943 19.5311 23.0678 20.1 24.5 20.1Z" fill="white"/>
</svg>
