<svg width="45" height="44" viewBox="0 0 45 44" fill="none" xmlns="http://www.w3.org/2000/svg">
<path fill-rule="evenodd" clip-rule="evenodd" d="M0.49585 2.19725C0.49585 1.61366 0.727679 1.05397 1.14034 0.641315C1.553 0.228656 2.11268 -0.00317378 2.69627 -0.00317378H5.25976C6.29042 -0.00332933 7.28843 0.358255 8.0798 1.01854C8.87118 1.67882 9.40571 2.59591 9.59019 3.60992L10.5342 8.79851H29.4842C31.1311 8.79887 32.7184 9.41482 33.9345 10.5254C35.1505 11.6361 35.9075 13.1611 36.0569 14.8013L36.9458 24.5865C37.0573 24.6628 37.1615 24.7494 37.2583 24.8462L41.0144 28.6023H42.3039C42.8875 28.6023 43.4471 28.8341 43.8598 29.2468C44.2725 29.6595 44.5043 30.2191 44.5043 30.8027C44.5043 31.3863 44.2725 31.946 43.8598 32.3587C43.4471 32.7713 42.8875 33.0032 42.3039 33.0032H40.1034C39.5199 33.003 38.9603 32.7711 38.5477 32.3584L37.5642 31.3748L37.7468 33.3948C38.9198 33.8643 39.8955 34.7233 40.5098 35.8274C41.1241 36.9315 41.3396 38.2135 41.1201 39.4578C40.9006 40.7021 40.2594 41.8329 39.3044 42.6601C38.3493 43.4873 37.1386 43.9606 35.8757 44.0003C34.6128 44.0401 33.3748 43.6439 32.3696 42.8783C31.3644 42.1128 30.6534 41.0245 30.3561 39.7965C30.0588 38.5685 30.1933 37.2755 30.7369 36.135C31.2806 34.9944 32.2003 34.0758 33.3415 33.5335L32.8927 28.6023H26.7183C27.1262 31.0181 26.8539 33.4997 25.9318 35.7696C25.0097 38.0394 23.4743 40.0079 21.4972 41.4548C19.5201 42.9017 17.1794 43.77 14.737 43.9624C12.2945 44.1548 9.84676 43.6638 7.66748 42.5443C5.48821 41.4249 3.66342 39.7211 2.39727 37.6237C1.13112 35.5262 0.473569 33.1178 0.498184 30.668C0.522799 28.2181 1.22861 25.8234 2.53665 23.7518C3.84468 21.6803 5.70334 20.0135 7.90467 18.9381L5.25976 4.39767H2.69627C2.11268 4.39767 1.553 4.16584 1.14034 3.75318C0.727679 3.34052 0.49585 2.78084 0.49585 2.19725ZM13.6984 22.001C11.4122 22.0733 9.24386 23.0324 7.65225 24.6751C6.06064 26.3178 5.17066 28.5154 5.17066 30.8027C5.17066 33.09 6.06064 35.2876 7.65225 36.9304C9.24386 38.5731 11.4122 39.5321 13.6984 39.6044C16.0327 39.6044 18.2715 38.6771 19.9221 37.0265C21.5728 35.3758 22.5001 33.1371 22.5001 30.8027C22.5001 28.4684 21.5728 26.2296 19.9221 24.579C18.2715 22.9284 16.0327 22.001 13.6984 22.001ZM35.7026 37.404C35.4108 37.404 35.131 37.5199 34.9246 37.7262C34.7183 37.9326 34.6024 38.2124 34.6024 38.5042C34.6024 38.796 34.7183 39.0758 34.9246 39.2822C35.131 39.4885 35.4108 39.6044 35.7026 39.6044C35.9944 39.6044 36.2742 39.4885 36.4806 39.2822C36.6869 39.0758 36.8028 38.796 36.8028 38.5042C36.8028 38.2124 36.6869 37.9326 36.4806 37.7262C36.2742 37.5199 35.9944 37.404 35.7026 37.404Z" fill="white"/>
</svg>
