<svg width="49" height="49" viewBox="0 0 49 49" fill="none" xmlns="http://www.w3.org/2000/svg">
<path d="M24.5 0.5C18.1348 0.5 12.0303 3.02856 7.52944 7.52944C3.02856 12.0303 0.5 18.1348 0.5 24.5C0.5 30.8652 3.02856 36.9697 7.52944 41.4706C12.0303 45.9714 18.1348 48.5 24.5 48.5C30.8652 48.5 36.9697 45.9714 41.4706 41.4706C45.9714 36.9697 48.5 30.8652 48.5 24.5C48.5 18.1348 45.9714 12.0303 41.4706 7.52944C36.9697 3.02856 30.8652 0.5 24.5 0.5ZM15.776 5.39L23.006 9.608V14.708L14.699 20.564L10.019 18.863L8.141 11.327C10.1894 8.78092 12.8037 6.74801 15.776 5.39ZM3.602 26.576L9.083 21.716L13.721 23.399L16.856 33.269L14.705 36.488H7.256C5.2085 33.5518 3.95023 30.1386 3.602 26.576ZM19.619 44.93L17.174 38.192L19.304 35.003H29.705L31.838 38.192L29.393 44.927C26.1803 45.6957 22.8317 45.6987 19.619 44.93ZM41.744 36.485H34.31L32.15 33.26L35.225 23.399L39.926 21.707L45.398 26.573C45.0498 30.1356 43.7915 33.5488 41.744 36.485ZM40.874 11.345L38.996 18.854L34.244 20.564L26.003 14.708V9.608L33.23 5.39C36.2074 6.75197 38.8251 8.79125 40.874 11.345Z" fill="white"/>
</svg>
