<svg width="49" height="44" viewBox="0 0 49 44" fill="none" xmlns="http://www.w3.org/2000/svg">
<path d="M7.95648 14.5031C10.2049 12.7559 12.0702 13.9609 14.5597 16.8431C14.8392 17.1685 15.2152 16.7877 15.4296 16.6021C15.6441 16.4166 18.9264 13.4572 19.0879 13.3222C19.247 13.18 19.4398 12.915 19.1867 12.6185C18.5771 11.8646 17.9802 11.1006 17.3961 10.3267C13.039 4.62724 29.3156 0.761726 26.8165 0.701478C25.5441 0.667739 20.4399 0.607491 19.6759 0.691838C16.584 1.01718 12.7016 3.90667 10.7472 5.25382C8.19024 7.00342 7.23591 8.03005 7.07927 8.17223C6.35629 8.80363 6.96359 10.2616 5.6526 11.4112C4.26689 12.6234 3.40173 11.7052 2.59923 12.4089C2.20159 12.7607 1.08821 13.5946 0.770097 13.8717C0.449577 14.1537 0.391739 14.6284 0.719489 15.0068C0.719489 15.0068 3.76563 18.371 4.02108 18.6698C4.27412 18.9639 4.96336 19.2193 5.38751 18.841C5.81406 18.465 6.91058 17.5083 7.09373 17.3396C7.2817 17.1805 6.97323 15.2646 7.95648 14.5031ZM21.7123 15.749C21.4231 15.414 21.064 15.4044 20.7556 15.6791L17.2997 18.6964C17.1669 18.8177 17.0859 18.9857 17.0738 19.1653C17.0617 19.3449 17.1193 19.5222 17.2347 19.6603L37.2226 42.4076C37.6901 42.945 38.4998 43.0004 39.0324 42.5353L41.37 40.576C41.6273 40.3494 41.7848 40.0305 41.8083 39.6884C41.8318 39.3464 41.7193 39.0089 41.4954 38.7493L21.7123 15.749ZM48.3636 6.06837C48.1853 4.87787 47.5684 5.12609 47.2478 5.62977C46.9273 6.13826 45.5103 8.2855 44.9271 9.25911C44.3487 10.2231 42.922 12.1293 40.2663 10.2472C37.4997 8.29273 38.4613 6.92871 38.9432 6.01053C39.4276 5.08753 40.9146 2.49928 41.129 2.17876C41.3435 1.85342 41.0929 0.908731 40.235 1.30396C39.3746 1.69919 34.1547 3.77413 33.4318 6.75038C32.6919 9.77724 34.0511 12.4836 31.3833 15.1706L28.1468 18.5445L31.3978 22.3185L35.3838 18.5349C36.3333 17.5806 38.3625 16.6527 40.1988 17.0721C44.1342 17.9613 46.2815 16.484 47.5756 14.0404C48.7372 11.857 48.5444 7.25887 48.3636 6.06837ZM7.00215 38.9951C6.76226 39.2386 6.62778 39.5667 6.62778 39.9085C6.62778 40.2503 6.76226 40.5784 7.00215 40.8218L9.29399 43.0631C9.79525 43.5667 10.5905 43.3547 11.0918 42.851L22.9173 31.2255L19.2952 27.0949L7.00215 38.9951Z" fill="white"/>
</svg>
