<svg width="49" height="46" viewBox="0 0 49 46" fill="none" xmlns="http://www.w3.org/2000/svg">
<path d="M41.0829 9.18122H41.2284C42.3589 9.18151 43.4737 9.44529 44.4844 9.95163C45.4951 10.458 46.3739 11.1929 47.051 12.0982C47.7281 13.0034 48.1849 14.054 48.385 15.1666C48.5852 16.2792 48.5233 17.4232 48.2043 18.5076C47.8852 19.5921 47.3177 20.5873 46.5469 21.4142C45.7761 22.2411 44.8231 22.877 43.7636 23.2713C42.7042 23.6656 41.5674 23.8075 40.4435 23.6858C39.3196 23.5641 38.2396 23.1821 37.2891 22.5702L38.5954 27.9642C38.7249 28.4991 38.7312 29.0564 38.614 29.5942C38.4968 30.1319 38.259 30.636 37.9187 31.0685C37.5783 31.501 37.1442 31.8506 36.6492 32.091C36.1541 32.3314 35.6109 32.4563 35.0605 32.4563H32.8407C32.2902 32.4559 31.7471 32.3307 31.2521 32.09C30.7571 31.8492 30.3232 31.4993 29.9831 31.0665C29.643 30.6337 29.4056 30.1293 29.2888 29.5914C29.172 29.0535 29.1788 28.4961 29.3087 27.9613L30.6179 22.5702C29.3907 23.3601 27.9543 23.7625 26.4953 23.7252C26.1754 22.4926 25.4599 21.399 24.4587 20.6122C24.9675 19.285 25.2288 17.876 25.2297 16.4547C25.2297 14.0748 24.514 11.8637 23.2892 10.0191C24.3794 9.44436 25.5977 9.15604 26.8299 9.18122C26.6339 8.22132 26.6339 7.23174 26.8299 6.27184C27.2157 4.38138 28.3367 2.72162 29.9462 1.65767C31.5558 0.59372 33.5221 0.212744 35.4126 0.598551C37.303 0.984359 38.9628 2.10535 40.0267 3.71491C41.0907 5.32447 41.4687 7.29076 41.0829 9.18122ZM13.5922 7.72653C11.9073 7.72657 10.2585 8.21428 8.84466 9.13078C7.43085 10.0473 6.31253 11.3534 5.6247 12.8915C4.93687 14.4296 4.70892 16.1339 4.96837 17.7987C5.22782 19.4635 5.96358 21.0176 7.08683 22.2734H6.31876C5.54714 22.2734 4.80713 22.5799 4.26152 23.1256C3.7159 23.6712 3.40938 24.4112 3.40938 25.1828C3.40938 25.9544 3.7159 26.6944 4.26152 27.24C4.80713 27.7857 5.54714 28.0922 6.31876 28.0922H7.83164C6.74935 33.3232 3.89525 36.3432 2.30381 37.6728C1.29717 38.5165 0.5 39.8141 0.5 41.327C0.5 43.6574 2.3911 45.5485 4.72151 45.5485H22.4658C24.7933 45.5485 26.6844 43.6574 26.6844 41.327C26.6844 39.8141 25.8872 38.5165 24.8806 37.6728C23.2892 36.3432 20.4351 33.3232 19.3528 28.0922H20.8657C21.6373 28.0922 22.3773 27.7857 22.9229 27.24C23.4685 26.6944 23.775 25.9544 23.775 25.1828C23.775 24.4112 23.4685 23.6712 22.9229 23.1256C22.3773 22.5799 21.6373 22.2734 20.8657 22.2734H20.0976C21.2208 21.0176 21.9566 19.4635 22.216 17.7987C22.4755 16.1339 22.2475 14.4296 21.5597 12.8915C20.8719 11.3534 19.7536 10.0473 18.3398 9.13078C16.926 8.21428 15.2771 7.72657 13.5922 7.72653Z" fill="white"/>
</svg>
