<svg width="49" height="44" viewBox="0 0 49 44" fill="none" xmlns="http://www.w3.org/2000/svg">
<path d="M5.3 38.8C3.98 38.8 2.8504 38.3304 1.9112 37.3912C0.972 36.452 0.5016 35.3216 0.5 34V5.20002C0.5 3.88002 0.9704 2.75042 1.9112 1.81122C2.852 0.872025 3.9816 0.401624 5.3 0.400024H43.7C45.02 0.400024 46.1504 0.870425 47.0912 1.81122C48.032 2.75202 48.5016 3.88162 48.5 5.20002V34C48.5 35.32 48.0304 36.4504 47.0912 37.3912C46.152 38.332 45.0216 38.8016 43.7 38.8H34.1V41.2C34.1 41.88 33.8696 42.4504 33.4088 42.9112C32.948 43.372 32.3784 43.6016 31.7 43.6H17.3C16.62 43.6 16.0504 43.3696 15.5912 42.9088C15.132 42.448 14.9016 41.8784 14.9 41.2V38.8H5.3ZM5.3 34H43.7V5.20002H5.3V34Z" fill="white"/>
</svg>
