<svg width="49" height="35" viewBox="0 0 49 35" fill="none" xmlns="http://www.w3.org/2000/svg">
<path d="M45.987 0.499512H3.013C1.631 0.499512 0.5 1.75651 0.5 2.99951C0.5 4.24251 1.631 5.49851 3.013 5.49851H3.62V10.4985H45.441V5.49851H45.987C47.37 5.49851 48.5 4.24251 48.5 2.99951C48.5 1.75651 47.37 0.499512 45.987 0.499512ZM24.5 8.01951C23.806 8.01951 23.244 7.44051 23.244 6.72751C23.244 6.01451 23.806 5.43551 24.5 5.43551C25.195 5.43551 25.756 6.01451 25.756 6.72751C25.756 7.44051 25.195 8.01951 24.5 8.01951ZM3.62 20.4975H45.441V12.4995H3.62V20.4975ZM24.5 15.1235C25.195 15.1235 25.756 15.7015 25.756 16.4145C25.756 17.1285 25.195 17.7065 24.5 17.7065C23.806 17.7065 23.244 17.1285 23.244 16.4145C23.243 15.7015 23.806 15.1235 24.5 15.1235ZM3.62 27.3945V33.2085C3.62 33.9185 3.709 34.5005 4.4 34.5005H9.424C10.115 34.5005 10.428 33.9185 10.428 33.2085V29.4985H38.633V33.2085C38.633 33.9185 38.885 34.5005 39.575 34.5005H44.6C45.289 34.5005 45.44 33.9185 45.44 33.2085V22.4995H3.62V27.3945ZM24.5 24.8115C25.195 24.8115 25.756 25.3905 25.756 26.1025C25.756 26.8175 25.195 27.3935 24.5 27.3935C23.806 27.3935 23.244 26.8175 23.244 26.1025C23.243 25.3915 23.806 24.8115 24.5 24.8115Z" fill="white"/>
</svg>
