<svg width="29" height="49" viewBox="0 0 29 49" fill="none" xmlns="http://www.w3.org/2000/svg">
<path d="M24.1001 0.5H4.9001C3.62706 0.5 2.40616 1.00571 1.50598 1.90589C0.60581 2.80606 0.100098 4.02696 0.100098 5.3V43.7C0.100098 44.973 0.60581 46.1939 1.50598 47.0941C2.40616 47.9943 3.62706 48.5 4.9001 48.5H24.1001C25.3731 48.5 26.594 47.9943 27.4942 47.0941C28.3944 46.1939 28.9001 44.973 28.9001 43.7V5.3C28.9001 4.02696 28.3944 2.80606 27.4942 1.90589C26.594 1.00571 25.3731 0.5 24.1001 0.5ZM16.9001 46.1H12.1001V43.7H16.9001V46.1ZM24.1001 41.3H4.9001V7.7H24.1001V41.3Z" fill="white"/>
</svg>
