<svg width="49" height="41" viewBox="0 0 49 41" fill="none" xmlns="http://www.w3.org/2000/svg">
<path d="M2.68183 40.1364C2.06364 40.1364 1.54583 39.9269 1.12837 39.508C0.710917 39.0891 0.501462 38.5713 0.500008 37.9545C0.498553 37.3378 0.708007 36.82 1.12837 36.4011C1.54873 35.9822 2.06655 35.7727 2.68183 35.7727H46.3182C46.9364 35.7727 47.4549 35.9822 47.8738 36.4011C48.2927 36.82 48.5014 37.3378 48.5 37.9545C48.4985 38.5713 48.2891 39.0898 47.8716 39.5102C47.4542 39.9305 46.9364 40.1393 46.3182 40.1364H2.68183ZM7.04546 33.5909C5.84546 33.5909 4.81855 33.164 3.96473 32.3102C3.11092 31.4564 2.68328 30.4287 2.68183 29.2273V5.22728C2.68183 4.02728 3.10946 3.00037 3.96473 2.14656C4.82001 1.29274 5.84691 0.865102 7.04546 0.863647H41.9545C43.1545 0.863647 44.1822 1.29128 45.0374 2.14656C45.8927 3.00183 46.3196 4.02874 46.3182 5.22728V29.2273C46.3182 30.4273 45.8913 31.4549 45.0374 32.3102C44.1836 33.1655 43.156 33.5924 41.9545 33.5909H7.04546ZM7.04546 29.2273H41.9545V5.22728H7.04546V29.2273Z" fill="white"/>
</svg>
