<svg width="49" height="36" viewBox="0 0 49 36" fill="none" xmlns="http://www.w3.org/2000/svg">
<path fill-rule="evenodd" clip-rule="evenodd" d="M33.5329 0C34.8698 4.00829e-05 36.1803 0.328519 37.3175 0.94864C38.4548 1.56876 39.3739 2.45603 39.972 3.51106L43.2983 9.37906C43.8839 9.16729 44.4599 8.93859 45.0263 8.69294C45.5959 8.44189 46.2553 8.4008 46.8593 8.57872C47.4633 8.75664 47.9625 9.13899 48.247 9.64165C48.5315 10.1443 48.5781 10.7261 48.3764 11.2591C48.1748 11.792 47.7415 12.2325 47.1718 12.4835C46.5949 12.7101 46.0149 12.9303 45.4319 13.1442L47.7382 17.2165C48.2388 18.0994 48.4993 19.0732 48.499 20.0605V25.4118C48.499 26.3056 48.2852 27.1893 47.8716 28.0053C47.4581 28.8212 46.8541 29.5509 46.099 30.1468V32.8235C46.099 33.666 45.7198 34.4739 45.0447 35.0696C44.3695 35.6653 43.4539 36 42.4991 36C41.5444 36 40.6287 35.6653 39.9536 35.0696C39.2785 34.4739 38.8992 33.666 38.8992 32.8235V31.7647H10.0998V32.8235C10.0998 33.666 9.72052 34.4739 9.04541 35.0696C8.37029 35.6653 7.45463 36 6.49987 36C5.54511 36 4.62946 35.6653 3.95434 35.0696C3.27923 34.4739 2.89995 33.666 2.89995 32.8235V30.1468C1.42638 28.9821 0.5 27.2922 0.5 25.4118V20.0584C0.500448 19.0725 0.760913 18.1003 1.26078 17.2186L3.54794 13.1781C2.96875 12.9635 2.39676 12.7327 1.83197 12.4856C1.26518 12.2313 0.834336 11.7907 0.632316 11.2587C0.430295 10.7267 0.473277 10.1459 0.751995 9.64165C0.892773 9.39267 1.08778 9.17062 1.32586 8.98818C1.56395 8.80573 1.84045 8.66648 2.13955 8.57837C2.43866 8.49027 2.75451 8.45504 3.06906 8.4747C3.38361 8.49435 3.69068 8.56851 3.97273 8.69294C4.54072 8.94 5.1167 9.16871 5.70069 9.37906L9.02702 3.51318C9.62473 2.45775 10.5437 1.57005 11.681 0.949541C12.8183 0.329032 14.1289 0.000236719 15.4661 0H33.5329ZM13.6997 19.0588C12.745 19.0588 11.8293 19.3935 11.1542 19.9892C10.4791 20.5849 10.0998 21.3928 10.0998 22.2353C10.0998 23.0777 10.4791 23.8857 11.1542 24.4814C11.8293 25.0771 12.745 25.4118 13.6997 25.4118C14.6545 25.4118 15.5701 25.0771 16.2453 24.4814C16.9204 23.8857 17.2996 23.0777 17.2996 22.2353C17.2996 21.3928 16.9204 20.5849 16.2453 19.9892C15.5701 19.3935 14.6545 19.0588 13.6997 19.0588ZM35.2993 19.0588C34.3445 19.0588 33.4289 19.3935 32.7537 19.9892C32.0786 20.5849 31.6993 21.3928 31.6993 22.2353C31.6993 23.0777 32.0786 23.8857 32.7537 24.4814C33.4289 25.0771 34.3445 25.4118 35.2993 25.4118C36.254 25.4118 37.1697 25.0771 37.8448 24.4814C38.5199 23.8857 38.8992 23.0777 38.8992 22.2353C38.8992 21.3928 38.5199 20.5849 37.8448 19.9892C37.1697 19.3935 36.254 19.0588 35.2993 19.0588ZM33.5329 4.23529H15.4661C15.0711 4.23524 14.6822 4.32122 14.3338 4.48561C13.9855 4.65 13.6886 4.88771 13.4693 5.17765L13.3205 5.40635L10.2726 10.7809C13.9877 11.7635 18.994 12.7059 24.4995 12.7059C29.6402 12.7059 34.3417 11.8842 37.9632 10.9758L38.724 10.7809L35.6785 5.40635C35.5018 5.09467 35.2408 4.82626 34.9184 4.62494C34.5961 4.42361 34.2224 4.29559 33.8305 4.25224L33.5353 4.23529H33.5329Z" fill="white"/>
</svg>
