<svg width="36" height="42" viewBox="0 0 36 42" fill="none" xmlns="http://www.w3.org/2000/svg">
<path d="M33.026 5.262H24.92C23.938 2.188 21.106 0 17.762 0C14.418 0 11.588 2.188 10.62 5.208L10.606 5.262H2.606C2.04745 5.262 1.51178 5.48388 1.11683 5.87883C0.721881 6.27379 0.5 6.80945 0.5 7.368C0.5 7.92655 0.721881 8.46222 1.11683 8.85717C1.51178 9.25212 2.04745 9.474 2.606 9.474H10.712C11.248 11.272 12.412 12.744 13.942 13.666L13.974 13.684C8.232 15.418 4.116 20.644 4.08 26.838V37.894C4.08834 38.8124 4.45675 39.6909 5.10603 40.3406C5.7553 40.9902 6.63357 41.3591 7.552 41.368H10.396V35.368C10.396 33.3858 11.1834 31.4847 12.5851 30.0831C13.9867 28.6814 15.8878 27.894 17.87 27.894C19.8522 27.894 21.7533 28.6814 23.1549 30.0831C24.5566 31.4847 25.344 33.3858 25.344 35.368V41.368H28.186C29.1056 41.3617 29.9858 40.9938 30.6363 40.3437C31.2867 39.6936 31.6552 38.8136 31.662 37.894V26.946C31.6607 23.9936 30.7064 21.1206 28.941 18.7542C27.1757 16.3878 24.6936 14.6544 21.864 13.812L21.768 13.788C23.3323 12.8553 24.4915 11.3715 25.018 9.628L25.032 9.576H33.138C33.6961 9.57442 34.2308 9.35203 34.6254 8.95742C35.02 8.56281 35.2424 8.02806 35.244 7.47C35.2218 6.89131 34.9821 6.3423 34.5728 5.93262C34.1635 5.52293 33.6147 5.28274 33.036 5.26H33.032L33.026 5.262ZM17.762 11.68C16.9289 11.68 16.1146 11.433 15.4219 10.9701C14.7293 10.5073 14.1894 9.8495 13.8706 9.07986C13.5518 8.31022 13.4684 7.46333 13.6309 6.64628C13.7935 5.82923 14.1946 5.07873 14.7837 4.48967C15.3727 3.90061 16.1232 3.49945 16.9403 3.33693C17.7573 3.17441 18.6042 3.25782 19.3739 3.57662C20.1435 3.89542 20.8013 4.43528 21.2642 5.12794C21.727 5.8206 21.974 6.63494 21.974 7.468L21.976 7.588C21.976 9.848 20.144 11.68 17.884 11.68L17.758 11.678H17.764L17.762 11.68Z" fill="white"/>
</svg>
