<svg width="44" height="49" viewBox="0 0 44 49" fill="none" xmlns="http://www.w3.org/2000/svg">
<path d="M15.1645 0.565002L12.9681 1.66644C12.9681 5.13195 13.0547 11.1725 14.472 15.8358C20.7799 17.3721 23.9608 17.3721 30.2686 15.8358C31.7076 11.1833 31.7726 6.47249 31.7834 1.66644L29.5762 0.565002C29.1001 1.18605 28.3103 2.19227 27.2175 3.43977C26.4385 4.32264 25.6162 5.20985 24.8264 5.90663C24.4369 6.25502 24.0582 6.55581 23.6795 6.79059C23.29 7.02862 22.9113 7.23419 22.3703 7.23419C21.8294 7.23419 21.4507 7.02862 21.0612 6.79059C20.6825 6.55581 20.3038 6.25502 19.9143 5.90663C19.1245 5.20985 18.3022 4.32264 17.5232 3.43977C16.4304 2.19227 15.6406 1.18605 15.1645 0.565002ZM14.234 17.7725L0.871826 44.5077C0.902121 44.6267 0.958383 44.7565 1.10553 44.9188C1.32192 45.1677 1.70926 45.4706 2.25349 45.7519C3.3441 46.3362 5.03628 46.8663 7.09309 47.2883C11.2045 48.1322 16.7983 48.565 22.3703 48.565C27.9424 48.565 33.5361 48.1322 37.6476 47.2883C39.7033 46.8663 41.402 46.3362 42.4839 45.7519C43.0357 45.4706 43.4144 45.1677 43.6308 44.9188C43.7823 44.7565 43.8364 44.6267 43.8689 44.5077L30.5067 17.7725C24.2313 19.2764 20.5094 19.2764 14.234 17.7725Z" fill="white"/>
</svg>
