<svg width="45" height="48" viewBox="0 0 45 48" fill="none" xmlns="http://www.w3.org/2000/svg">
<path fill-rule="evenodd" clip-rule="evenodd" d="M44.0383 35.6037C44.0353 35.7217 44.0238 35.8393 44.0039 35.9557C44.0558 36.2229 44.048 36.4983 43.9809 36.7622C43.9139 37.026 43.7894 37.2718 43.6162 37.4819C43.4431 37.6919 43.2256 37.8611 42.9795 37.9773C42.7333 38.0935 42.4644 38.1538 42.1922 38.1538H7.73066C7.32659 38.1538 6.92648 38.2334 6.55317 38.3881C6.17986 38.5427 5.84066 38.7693 5.55494 39.0551C5.26922 39.3408 5.04258 39.68 4.88795 40.0533C4.73332 40.4266 4.65373 40.8267 4.65373 41.2308C4.65373 41.6348 4.73332 42.0349 4.88795 42.4083C5.04258 42.7816 5.26922 43.1208 5.55494 43.4065C5.84066 43.6922 6.17986 43.9188 6.55317 44.0735C6.92648 44.2281 7.32659 44.3077 7.73066 44.3077H42.1922C42.6818 44.3077 43.1514 44.5022 43.4976 44.8484C43.8438 45.1946 44.0383 45.6642 44.0383 46.1538C44.0383 46.6435 43.8438 47.1131 43.4976 47.4593C43.1514 47.8055 42.6818 48 42.1922 48H7.73066C5.93534 48 4.21356 47.2868 2.94409 46.0173C1.67461 44.7479 0.961426 43.0261 0.961426 41.2308V6.76923C0.961426 4.97392 1.67461 3.25214 2.94409 1.98266C4.21356 0.713185 5.93534 0 7.73066 0H40.7153C42.5516 0 44.0383 1.48677 44.0383 3.32308V35.6037ZM15.1153 9.84615C14.6256 9.84615 14.1561 10.0407 13.8098 10.3869C13.4636 10.7331 13.2691 11.2027 13.2691 11.6923C13.2691 12.1819 13.4636 12.6515 13.8098 12.9977C14.1561 13.344 14.6256 13.5385 15.1153 13.5385H29.8845C30.3741 13.5385 30.8437 13.344 31.1899 12.9977C31.5361 12.6515 31.7307 12.1819 31.7307 11.6923C31.7307 11.2027 31.5361 10.7331 31.1899 10.3869C30.8437 10.0407 30.3741 9.84615 29.8845 9.84615H15.1153Z" fill="white"/>
</svg>
