<svg width="49" height="51" viewBox="0 0 49 51" fill="none" xmlns="http://www.w3.org/2000/svg">
<path d="M28.2895 0.236816V20.4473H48.5C48.5 15.0872 46.3707 9.94655 42.5805 6.15634C38.7903 2.36613 33.6496 0.236816 28.2895 0.236816ZM44.2558 35.3273C47.0075 31.7974 48.5013 27.4494 48.5 22.9737H11.7168L9.3421 17.921H0.5V22.9737H6.10842C6.10842 22.9737 10.8832 33.2558 11.4642 34.14C8.68526 35.6052 6.81579 38.561 6.81579 41.921C6.81579 44.2661 7.74737 46.5151 9.40558 48.1733C11.0638 49.8316 13.3128 50.7631 15.6579 50.7631C20.1042 50.7631 23.7926 47.4789 24.3989 43.1842H29.6537C30.26 47.4789 33.9484 50.7631 38.3947 50.7631C40.7398 50.7631 42.9888 49.8316 44.647 48.1733C46.3053 46.5151 47.2368 44.2661 47.2368 41.921C47.2368 39.2937 46.0747 36.9442 44.2558 35.3273ZM15.6579 45.7105C14.6529 45.7105 13.689 45.3113 12.9783 44.6006C12.2677 43.8899 11.8684 42.9261 11.8684 41.921C11.8684 40.916 12.2677 39.9521 12.9783 39.2415C13.689 38.5308 14.6529 38.1316 15.6579 38.1316C16.6629 38.1316 17.6268 38.5308 18.3375 39.2415C19.0481 39.9521 19.4474 40.916 19.4474 41.921C19.4474 42.9261 19.0481 43.8899 18.3375 44.6006C17.6268 45.3113 16.6629 45.7105 15.6579 45.7105ZM38.3947 45.7105C37.3897 45.7105 36.4258 45.3113 35.7152 44.6006C35.0045 43.8899 34.6053 42.9261 34.6053 41.921C34.6053 40.916 35.0045 39.9521 35.7152 39.2415C36.4258 38.5308 37.3897 38.1316 38.3947 38.1316C39.3998 38.1316 40.3636 38.5308 41.0743 39.2415C41.785 39.9521 42.1842 40.916 42.1842 41.921C42.1842 42.9261 41.785 43.8899 41.0743 44.6006C40.3636 45.3113 39.3998 45.7105 38.3947 45.7105Z" fill="white"/>
</svg>
